<svg id="Layer_1" enable-background="new 0 0 512 512" height="512" viewBox="0 0 512 512" width="512" xmlns="http://www.w3.org/2000/svg"><g><path d="m405.461 449.224-70.325-104.526-93.457 44.389 79.335 117.483c3.031 4.488 9.976 3.063 10.995-2.255l9.74-50.827c.633-3.304 3.833-5.464 7.134-4.815l50.369 9.898c5.311 1.043 9.23-4.857 6.209-9.347z" fill="#00c6cb"/><path d="m176.283 348.114-70.535 103.79c-3.05 4.487.869 10.417 6.193 9.371l50.273-9.88c3.301-.649 6.501 1.511 7.134 4.815l9.746 50.857c1.019 5.314 7.955 6.743 10.99 2.263l80.017-118.119z" fill="#00ecce"/><path d="m175.617 351.47h-160.405c-8.381 0-15.175-6.794-15.175-15.175v-321.12c.001-8.381 6.795-15.175 15.175-15.175h481.575c8.381 0 15.175 6.794 15.175 15.175v321.121c0 8.381-6.794 15.175-15.175 15.175h-157.94" fill="#fff5f5"/><path d="m496.787 0h-240.092v351.47h240.093c8.381 0 15.175-6.794 15.175-15.175v-321.12c-.001-8.381-6.795-15.175-15.176-15.175z" fill="#f4f1f1"/><path d="m181.423 283.578h-115.015v-215.686h379.184v215.686h-113.448" fill="#fff5f5"/><path d="m256.695 67.892h188.897v215.686h-188.897z" fill="#f4f1f1"/><path d="m256.695 411.084 13.406-19.79-13.406-6.159z" fill="#00c6cb"/><path d="m445.592 299.506h-113.448c-8.796 0-15.927-7.131-15.927-15.927s7.131-15.927 15.927-15.927h97.521v-183.833h-347.33v183.832h99.087c8.796 0 15.927 7.131 15.927 15.927s-7.131 15.927-15.927 15.927h-115.014c-8.796 0-15.927-7.131-15.927-15.927v-215.686c0-8.796 7.131-15.927 15.927-15.927h379.183c8.796 0 15.927 7.131 15.927 15.927v215.686c.001 8.797-7.13 15.928-15.926 15.928z" fill="#0a789b"/><path d="m445.592 51.965h-188.897v31.854h172.97v183.832h-97.521c-8.796 0-15.927 7.131-15.927 15.927s7.131 15.927 15.927 15.927h113.448c8.796 0 15.927-7.131 15.927-15.927v-215.686c0-8.796-7.131-15.927-15.927-15.927z" fill="#0a617d"/><g><path d="m360.696 158.517h-208.002c-8.796 0-15.927-7.131-15.927-15.927s7.131-15.927 15.927-15.927h208.002c8.796 0 15.927 7.131 15.927 15.927s-7.131 15.927-15.927 15.927z" fill="#08475e"/></g><path d="m360.695 126.663h-104v31.854h104.001c8.796 0 15.927-7.131 15.927-15.927s-7.131-15.927-15.928-15.927z" fill="#05303d"/><ellipse cx="256.695" cy="305.221" fill="#ffdd54" rx="85.232" ry="85.458"/><path d="m341.927 305.221c0-47.197-38.16-85.458-85.232-85.458v170.916c47.072 0 85.232-38.261 85.232-85.458z" fill="#ffd321"/><path d="m281.102 289.294h-8.48v-8.544c0-8.796-7.131-15.927-15.927-15.927s-15.927 7.131-15.927 15.927v8.544h-8.481c-8.796 0-15.927 7.131-15.927 15.927s7.131 15.927 15.927 15.927h8.481v8.545c0 8.796 7.131 15.927 15.927 15.927s15.927-7.131 15.927-15.927v-8.545h8.48c8.796 0 15.927-7.131 15.927-15.927s-7.131-15.927-15.927-15.927z" fill="#ffd321"/><path d="m281.102 289.294h-8.48v-8.544c0-8.796-7.131-15.927-15.927-15.927v80.798c8.796 0 15.927-7.131 15.927-15.927v-8.545h8.48c8.796 0 15.927-7.131 15.927-15.927 0-8.797-7.13-15.928-15.927-15.928z" fill="#ffb454"/><path d="m256.695 406.606c-55.779 0-101.159-45.482-101.159-101.385s45.38-101.385 101.159-101.385 101.158 45.482 101.158 101.385-45.379 101.385-101.158 101.385zm0-170.916c-38.215 0-69.305 31.192-69.305 69.531s31.09 69.531 69.305 69.531c38.214 0 69.304-31.192 69.304-69.531s-31.09-69.531-69.304-69.531z" fill="#ffd321"/><path d="m256.695 203.836v31.854c38.214 0 69.304 31.192 69.304 69.531s-31.09 69.531-69.304 69.531v31.854c55.779 0 101.158-45.482 101.158-101.385 0-55.904-45.379-101.385-101.158-101.385z" fill="#ffb454"/></g></svg>