<?xml version="1.0" encoding="UTF-8" standalone="no"?><!DOCTYPE svg PUBLIC "-//W3C//DTD SVG 1.1//EN" "http://www.w3.org/Graphics/SVG/1.1/DTD/svg11.dtd"><svg width="100%" height="100%" viewBox="0 0 2481 3508" version="1.1" xmlns="http://www.w3.org/2000/svg" xmlns:xlink="http://www.w3.org/1999/xlink" xml:space="preserve" xmlns:serif="http://www.serif.com/" style="fill-rule:evenodd;clip-rule:evenodd;stroke-linecap:round;stroke-linejoin:round;stroke-miterlimit:1.5;"><g><g id="Layer1"><path d="M2111,1838c0,-22 -73,-437 -212,-576c-51,-51 -456,-85 -646.157,-85c-242.843,0 -580.843,32.602 -649.843,85c-135,102.519 -217,554 -217,575" style="fill:none;stroke:#9dcdf4;stroke-width:12.5px;"/><path d="M2041,1860c0,-30 -66,-417 -188,-539c-26,-26 -425.213,-75 -600.157,-75c-223.416,0 -573.843,47.662 -609.843,75c-109,82.774 -188,532.64 -188,532.64c0,-0.248 3,0 3,0c3,0 21.43,-37.64 30,-37.64c97.297,0 386.315,-3.734 688,0c16.557,-0.197 36.522,31.899 41.214,32.491c337.472,1.27 683.869,-1.425 791.786,0c22.202,0.294 32,22.962 32,11.509Z" style="fill:#c4e4fd;"/><path d="M630.407,1796.81l-105.407,-229.814c-10,0 -69,246 -69,286c0,0 105,-18.833 126,-25c3.838,-1.127 -3.241,-9.656 0,-12l48.407,-19.186Zm87.593,-39.814l-66,28l-118,-254l35,-94l149,320Z" style="fill:#f3f9fe;"/><path id="Interior" d="M492,1813c-1.595,0 -3.786,1.409 -6.314,3.729c0.829,-0.472 1.605,-0.729 2.314,-0.729c97.297,0 386.315,-3.734 688,0c16.557,-0.197 36.522,31.899 41.214,32.491c337.472,1.27 683.869,-1.425 791.786,0c10.442,0.138 18.14,5.225 23.366,9.385c-4.792,-4.602 -11.4,-9.876 -19.366,-9.876l-22,0l-150.4,-63.765l-86.6,-133.235c0,0 -5.143,-43.174 -34.143,-42.861l-10.857,-0.139l0,-250c0,0 -3.713,-14.707 14.426,-23.435c18.139,-8.727 62.574,-29.216 71.819,-29.216c6.758,0 13.169,0.595 19.265,1.75c-109.153,-26.483 -414.626,-61.099 -561.667,-61.099c-223.416,0 -573.843,47.662 -609.843,75c-8.949,6.796 -17.696,16.066 -26.198,27.339c43.336,-40.827 83.198,-45.339 83.198,-45.339l71.689,30.288c0,0 15.696,8.712 16.556,23.868c2.552,44.952 0,253.844 0,253.844l-7.245,0c-32,0 -34,28 -34,28l-16,114.937l-143,59.063l-96,0Zm-36.998,40.631c0.019,-0.06 0.224,-0.088 0.519,-0.097c0.273,-2.226 0.655,-5.276 1.148,-9.074c-1.068,5.766 -1.633,8.975 -1.667,9.171l-0.001,0.003c-0.001,0.002 -0.001,0.004 -0.001,0.006l0.002,-0.009Zm18.505,-22.768c-6.293,8.324 -12.403,17.527 -15.789,22.756c0.175,0.012 0.282,0.021 0.282,0.021c1.712,0 8.447,-12.255 15.507,-22.777Zm1203.65,-221.586l-1.161,-237.277c0,-2 -2.473,-12.006 -14,-12.006l-17,7.006c0,0 -12.5,84.831 -18,116.997c-4.352,25.454 -13.833,55.336 -15,76.003c-0.914,16.195 -2.667,40 8,48l57.161,1.277Zm-572.161,-144.277l285,0c23,0 29,29 29,29l11,114l-365,0l14,-114c0,0 6,-29 26,-29Zm-286,143l0,-236c0,0 6.223,-16.124 19,-11c12.777,5.124 37,15 37,15l-6,232l-50,0Z" style="fill:#1174d1;fill-opacity:0.63;"/><path id="seat" d="M713,1825c7.5,-39.167 22.167,-151.167 32,-187c5.214,-19 17,-28 27,-28l947,0c24,0 27.688,14.498 32,28l52,235l-1103,0c0,0 7.115,-31.719 13,-48Z" style="fill:#0058af;"/><path d="M1097,1806.6c0,0 -12.715,-104.312 -38,-129.597c-17,-17 -77.627,-17.627 -93,-33c-10,-10 -7,-51 -7,-51l-61,0c0,0 2.748,48.252 0,51c-15,15 -84,16 -108,40c-9.647,9.647 -22,34 -22,44c0,0 1.065,2.355 -2,14c-1.163,4.419 -6.523,-4.468 -13.018,12.609c-2.18,2.969 -6.477,0.76 -10.982,6.391c-4,5 -0.269,8.925 -2.624,12.13l-5.376,2.87l0,6c-0.621,0.812 -2.741,1.697 -3,3c-1.701,8.556 0.122,31.358 3,31l363,22l0,-31.403Z" style="fill:#f0c98a;"/><path d="M764.622,1817.86l332.378,20.144l0,-31.403c0,0 -12.715,-104.312 -38,-129.597c-9.088,-10.595 -16.641,-11.378 -29,-13c0,0 -36.195,22.851 -102,24c-70.249,0.584 -108,-19 -108,-19c-5.581,1.108 -14.712,-0.523 -30,15c-9.647,9.647 -22,34 -22,44c0,0 0.118,0.262 0.162,1.042c2.772,-1.655 5.838,-1.042 5.838,-1.042c21.35,16.721 19.584,33.862 18,51l-5,5c1.313,3.492 1.431,6.536 0,9c-2.862,1.252 -5.481,1.778 -8,2c1.315,1.936 1.773,4.348 0,8l-5,0l-5,10.983c0,0 -1.699,1.698 -4.378,3.873Zm276.378,-22.856l-11,-34l-18,0l0,-6.482l-12,-0.581l0,-9.937c0,0 -22.008,-9.252 12,-46.39c0,0 8.5,1.825 11,3.39c2.037,1.275 4,6 4,6c0,0 11.167,1.333 14,4c2.833,2.667 3,12 3,12c0,0 5.5,2.333 7,4c1.41,1.567 2,6 2,6c0,0 11.819,7.232 5,28c-6.819,20.768 0,34 0,34l-17,0Zm-308.007,-12.143c-0.829,0.597 -1.821,1.278 -1.993,2.143c-0.192,0.966 -0.339,2.114 -0.445,3.388c1.013,-3.317 2.445,-4.388 2.445,-4.388c-0.016,-0.386 -0.018,-0.767 -0.007,-1.143Zm1.007,-6.857l0,2.18c0.541,-1.233 1.307,-2.375 2.32,-3.418l-2.32,1.238Zm5.975,-4.027l-0.017,0.051l0.042,-0.024l-0.011,-0.068l-0.014,0.041Zm12.698,-16.991c-2.167,2.311 -6.032,0.783 -10.135,5.381c1.917,-1.74 4.93,-2.931 9.462,-3.363l0.673,-2.018Zm4.478,-8.394c-0.291,0.37 -0.587,0.782 -0.887,1.243l0.887,-1.243Zm9.455,-6.988c-0.131,0.544 -0.273,1.113 -0.426,1.707l0.82,-0.307c0,0 -0.17,-0.551 -0.394,-1.4Z" style="fill:#852601;"/><g><path d="M928.365,1614.78c44.302,0 78.056,-69.805 78.056,-84.943c0,-40.264 7.724,-136.827 -78.224,-136.827c-82.017,0 -76.214,74.554 -76.214,136.827c0,32.816 38.217,84.943 76.382,84.943Z" style="fill:#f0c98a;"/><path d="M993.143,1384.55l-128.775,0c0,0 -10.055,-70.13 68.175,-70.13c62.182,0 60.6,70.13 60.6,70.13Z" style="fill:#40352a;"/><path d="M918.111,1419.75c0,0 2.975,0.367 -13.779,28.123c-10.008,16.581 -51.579,51.728 -52.342,78.034c-0.424,14.614 1.076,29.325 2.696,47.79c0.944,10.754 -0.738,22.589 0.953,32.626c1.605,9.527 3.25,15.679 3.25,15.679c-2.769,-3.19 -5.599,-11.121 -8.107,-20.752c-3.11,-11.943 -0.416,-26.543 -1.499,-37.949c-1.252,-13.183 -4.808,-18.241 -4.808,-18.241c0,0 2.092,7.387 0,17.439c-1.651,7.937 -7.22,26.241 -13.028,43.824c-3.782,11.551 -6.884,23.981 -7.163,34.536c-0.389,14.69 3.039,25.747 3.039,25.747c0,0 -9.546,-23.092 -8.191,-36.576c5.017,-49.93 17.578,-59.824 17.384,-82.027c-0.068,-7.785 -11.213,-33.589 -8.121,-84.353c4.27,-70.129 35.128,-83.465 35.128,-83.465c0,0 21.899,-17.702 68.536,-17.702c46.637,0 61.688,17.702 61.688,17.702c22.161,22.16 29.632,48.981 29.632,69.736c0,12.484 -0.515,39.919 0.116,47.722c0.882,11.156 8.452,15.841 7.823,50.36c-0.467,15.655 -9.039,32.194 -9.039,32.194c-3.011,15.693 -12.139,29.313 -14.689,42.928c-2.137,14.312 -0.307,30.038 -0.307,30.038c-4.016,-13.877 -6.12,-27.516 -4.447,-40.682c0,0 -4.296,10.2 -6.982,29.4c-1.633,9.741 -1.449,24.725 -1.449,24.725c0,0 -4.662,-10.077 -3.403,-26.57c1.321,-17.32 9.877,-38.466 19.094,-57.283c19.925,-40.68 -2.49,-79.699 -16.349,-89.662c-28.535,-21.545 -75.636,-73.341 -75.636,-73.341Z" style="fill:#332a21;"/><path d="M957,1573.7c-26,3.299 -42,-1.701 -64,-6.701c0,0 0,23 36.247,22c16.747,-0.462 27.753,-15.299 27.753,-15.299Z" style="fill:#fff;"/><ellipse cx="965" cy="1512.45" rx="9" ry="8.554" style="fill:#fff;"/><ellipse cx="902" cy="1507.55" rx="9" ry="8.554" style="fill:#fff;"/><ellipse cx="963.839" cy="1511.34" rx="5.839" ry="5.55"/><clipPath id="_clip1"><ellipse cx="963.839" cy="1511.34" rx="5.839" ry="5.55"/></clipPath><g clip-path="url(#_clip1)"><ellipse cx="962" cy="1508.59" rx="4" ry="3.851" style="fill:#fff;fill-opacity:0.42;"/></g><ellipse cx="901.161" cy="1506.9" rx="5.839" ry="5.55"/><clipPath id="_clip2"><ellipse cx="901.161" cy="1506.9" rx="5.839" ry="5.55"/></clipPath><g clip-path="url(#_clip2)"><ellipse cx="899.323" cy="1504.15" rx="4" ry="3.851" style="fill:#fff;fill-opacity:0.42;"/></g><path d="M976,1511.34c-7,-7.342 -9.309,-7.66 -17,-6.884c0,0 5,-2.338 9,-1.413c4,0.925 8,8.297 8,8.297Z"/><path d="M913.5,1505.79c-7,-7.342 -9.309,-7.659 -17,-6.884c0,0 5,-2.338 9,-1.413c4,0.925 8,8.297 8,8.297Z"/><path d="M984,1504.46c-12.282,-6.912 -16.666,-8.671 -28,-7.529c0,0 7.368,-2.61 13.263,-1.247c5.895,1.363 14.737,8.776 14.737,8.776Z"/><path d="M919,1495.29c-12.282,-6.912 -16.666,-8.672 -28,-7.529c0,0 7.368,-2.61 13.263,-1.247c5.895,1.363 14.737,8.776 14.737,8.776Z"/></g><path d="M1178,1608l-123,0c28.49,0 37.152,26.245 42,66c5,41 16,88 23,139c5.362,17.225 12.5,43.333 15,52l122,0l-79,-257Z" style="fill:#6eb4f0;"/><g><path d="M1857,1850l-84,0l-6,-18l64,-47c0,0 30.348,27.077 26,65Z" style="fill:#d09077;"/><path d="M1421,1828l0,29l-55,-5l6,-41l49,17Z" style="fill:#d09077;"/><path d="M1616,1583c0,0 -6.55,40.737 -47,49c-40.45,8.263 -35,-35 -35,-35l3,-32l76,-31l3,49Z" style="fill:#d09077;"/><clipPath id="_clip3"><path d="M1616,1583c0,0 -6.55,40.737 -47,49c-40.45,8.263 -35,-35 -35,-35l3,-32l76,-31l3,49Z"/></clipPath><g clip-path="url(#_clip3)"><circle cx="1547.5" cy="1622.5" r="44.5" style="fill:#f0b68a;"/></g><path d="M1660,1450c4.14,4.14 6.21,41.223 -24,50c-8,2.324 -22.006,63.861 -84,67c-79,4 -66,-81 -67,-102c-0.597,-12.543 3.547,-74.659 3,-78c-0.547,-3.341 24,-15 24,-15l105,5c0,0 9.642,88.303 16,88c6.358,-0.303 17,-25 27,-15Z" style="fill:#f0b68a;"/><path d="M1659,1447c-10.375,0.305 -19.015,6.393 -26,18c0,0 -16.811,-48.588 -14,-69c2.811,-20.412 -107,11 -118,-24c-4.155,-13.219 -10.768,52.404 -15,56c-4.232,3.596 -25.013,-75.527 0,-91c0,0 -6,-18 15,-25c25.85,-8.617 105.392,-12.915 147,47c25,36 11,88 11,88Z" style="fill:#404040;"/><path d="M1575,1516.58c-26,3.298 -42,-1.702 -64,-6.702c0,0 0,23 36.247,22c16.747,-0.462 27.753,-15.298 27.753,-15.298Z" style="fill:#fff;"/><ellipse cx="1583" cy="1455.33" rx="9" ry="8.554" style="fill:#fff;"/><ellipse cx="1520" cy="1450.44" rx="9" ry="8.554" style="fill:#fff;"/><ellipse cx="1581.84" cy="1454.22" rx="5.839" ry="5.55"/><clipPath id="_clip4"><ellipse cx="1581.84" cy="1454.22" rx="5.839" ry="5.55"/></clipPath><g clip-path="url(#_clip4)"><ellipse cx="1580" cy="1451.48" rx="4" ry="3.851" style="fill:#fff;fill-opacity:0.42;"/></g><ellipse cx="1519.16" cy="1449.78" rx="5.839" ry="5.55"/><clipPath id="_clip5"><ellipse cx="1519.16" cy="1449.78" rx="5.839" ry="5.55"/></clipPath><g clip-path="url(#_clip5)"><ellipse cx="1517.32" cy="1447.03" rx="4" ry="3.851" style="fill:#fff;fill-opacity:0.42;"/></g><path d="M1594,1454.22c-7,-7.342 -9.309,-7.659 -17,-6.884c0,0 5,-2.338 9,-1.413c4,0.925 8,8.297 8,8.297Z"/><path d="M1531.5,1448.67c-7,-7.342 -9.309,-7.66 -17,-6.884c0,0 5,-2.338 9,-1.413c4,0.925 8,8.297 8,8.297Z"/><path d="M1602,1447.34c-12.282,-6.911 -16.666,-8.671 -28,-7.528c0,0 7.368,-2.611 13.263,-1.248c5.895,1.363 14.737,8.776 14.737,8.776Z"/><path d="M1844,1781c0,0 -40.979,53.847 -82,54c-21.056,-21.331 -49,-54 -49,-54l-13,69l-280,6l0,-28c0,0 -47.947,-6.477 -56,-19c0,0 30.437,-143.557 30,-144c-0.437,-0.443 11.722,-39.16 52,-50c40.278,-10.84 63,-15 63,-15l26,-22c0,0 13.027,46 32,46c30,0 49,-44 49,-44l23,20c0,0 82.325,15.483 115,53c32.675,37.517 90,128 90,128Z" style="fill:#012245;"/><path d="M1537,1438.17c-12.282,-6.911 -16.666,-8.671 -28,-7.529c0,0 7.368,-2.61 13.263,-1.247c5.895,1.363 14.737,8.776 14.737,8.776Z"/><rect x="1611.3" y="1764" width="65.863" height="25" style="fill:#fff;"/><rect x="1611.3" y="1764" width="65.863" height="12.5" style="fill:#6694ff;"/></g><path d="M2041,1862c0,-3 -17,-14 -27,-14l-797,0c0,0 -32,-34 -39,-34c-1.748,0 -685,-1 -685,-1c-12,0 -37,35 -37,41c0,68 45,78 45,78c496.333,-22.434 992.667,-22.504 1489,1c12,0 51,-20 51,-71Z" style="fill:#043061;"/><path id="Steering" d="M1057.38,1813.89l34.234,0.096c0,0 -43.615,-118.572 -170.795,-118.931c-131.82,-0.371 -177.82,117.948 -177.82,117.948l286.392,0.808c0,0 -37.392,-56.808 -112.085,-56.808c-70.307,0 -109.097,56 -109.097,56l-39.21,0c0,0 47.977,-97.648 148.307,-96c111.693,0 149.816,96.911 149.816,96.911l-9.742,-0.024Z" style="fill:#02315b;"/></g><g id="Mirror"><g id="Layer2"><path d="M2303,1648c20,-2.735 19.679,-9.774 22.69,-19l0,-30.713c0,-20.287 -64.69,-66.287 -100.69,-66.287l-106,0c-12,0 -19.196,9 -19,17c0.652,26.553 -1,111 -1,111c4.654,0 59.557,-0.901 111,-4c48.042,-2.894 93,-8 93,-8Z" style="fill:#9dcdf4;stroke:#9dcdf4;stroke-width:8.33px;"/><path d="M2087.14,1711.99l-14.144,-51.989c80.39,0.55 158,-4 235,-12c0,20.011 -18,46 -40,51l-180.856,12.989Z" style="fill:none;stroke:#9dcdf4;stroke-width:8.33px;"/></g><g id="Layer21" serif:id="Layer2"><path d="M190,1648c-20,-2.735 -19.679,-9.774 -22.69,-19l0,-30.713c0,-20.287 64.69,-66.287 100.69,-66.287l106,0c12,0 19.196,9 19,17c-0.652,26.553 1,111 1,111c-4.654,0 -59.557,-0.901 -111,-4c-48.042,-2.894 -93,-8 -93,-8Z" style="fill:#9dcdf4;stroke:#9dcdf4;stroke-width:8.33px;"/><path d="M405.856,1711.99l14.144,-51.989c-80.39,0.55 -158,-4 -235,-12c0,20.011 18,46 40,51l180.856,12.989Z" style="fill:none;stroke:#9dcdf4;stroke-width:8.33px;"/></g></g><path d="M1367,1305l-89,0l4,-53l-70,0l5.679,53l-89.679,0c-20.421,0 -37,16.579 -37,37c0,20.421 16.579,37 37,37l239,0c20.421,0 37,-16.579 37,-37c0,-20.421 -16.579,-37 -37,-37Z" style="fill:#023061;"/><path d="M1768.29,1379l39,0l15.714,100.662l73.96,0l8.04,30.338l-110,0l-18.714,-131" style="fill:#c01c1c;"/><g id="Layer3"></g></g><path d="M395.406,1971.97c0,-67.626 1640.18,-52.671 1701.4,0c0,0 280.552,217.652 231.252,229.029c0,0 -138.396,32.812 -362.972,62.917c-190.335,25.514 -442.572,49.083 -724.925,49.083c-239.939,0 -456.626,-18.275 -629.697,-40.06c-255.389,-32.147 -415.803,-71.94 -415.803,-71.94c34.644,-109.571 200.749,-229.029 200.749,-229.029Z" style="fill:url(#_Linear6);stroke:#000;stroke-width:1.45px;"/><defs><linearGradient id="_Linear6" x1="0" y1="0" x2="1" y2="0" gradientUnits="userSpaceOnUse" gradientTransform="matrix(103.5,-412,412,103.5,1145,2345)"><stop offset="0" style="stop-color:#fff;stop-opacity:1"/><stop offset="1" style="stop-color:#9dcdf4;stop-opacity:1"/></linearGradient></defs></svg>