<svg width="426" height="44" viewBox="0 0 426 44" fill="none" xmlns="http://www.w3.org/2000/svg">
<path d="M19.658 11.3907L16.115 23.5655H16.0442L12.4304 11.3907H0.242638V32.3584H8.10798V17.3428H8.17883L12.7847 32.3584H19.3745L23.9804 17.3428H24.0512V32.3584H31.9166V11.3907H19.658Z" fill="#8F9090"/>
<path d="M42.3328 11.3907H52.9617L62.315 32.3584H53.1034L52.1822 29.9235H43.1123L42.1911 32.3584H32.9794L42.3328 11.3907ZM47.6472 17.681L45.0255 24.783H50.269L47.6472 17.681Z" fill="#8F9090"/>
<path d="M92.2175 11.3907H100.862V24.1066C100.862 26.8121 102.492 27.6914 105.326 27.6914C108.161 27.6914 109.79 26.8121 109.79 24.1066V11.3907H118.435V24.3771C118.435 31.0733 114.255 33.1024 105.326 33.1024C96.3982 33.1024 92.2175 31.0733 92.2175 24.3771V11.3907Z" fill="#8F9090"/>
<path d="M128.214 16.6664H120.207V11.3907H144.866V16.6664H136.859V32.3584H128.214V16.6664Z" fill="#8F9090"/>
<path d="M155.353 11.3907H146.708V32.3584H155.353V11.3907Z" fill="#8F9090"/>
<path d="M91.7215 32.3584L84.3522 25.7975C90.446 24.8506 89.6666 19.169 89.6666 17.2075C89.6666 14.9078 88.3203 12.8787 86.6905 12.1347C85.4859 11.5936 83.9979 11.3907 81.5178 11.3907H63.2362V32.3584H71.881V25.8652H73.369L80.5966 32.3584H91.7215ZM71.881 16.6664H77.904C79.3212 16.6664 80.4549 17.0722 80.4549 18.6279C80.4549 19.9807 79.7463 20.5894 78.0457 20.5894H71.881V16.6664V16.6664Z" fill="#8F9090"/>
<path d="M187.239 32.4937V26.6092C187.239 22.0098 188.798 19.6425 190.711 17.7486L197.585 11.1877L208.71 0.568558V7.67056C208.71 11.8641 207.151 13.8933 205.237 15.7195L200.065 20.657L198.506 22.2127C198.01 22.6862 197.656 23.2273 197.656 24.2419V25.3917L208.78 14.7726V21.8745C208.78 26.0681 207.221 28.0972 205.308 29.9235L203.82 31.3439L202.19 32.8995C201.694 33.373 201.34 33.9141 201.34 34.9287V36.0785L208.78 28.9765V36.0785C208.78 41.5572 205.45 43.1805 201.34 43.1805H187.239V32.4937Z" fill="#8F9090"/>
<path d="M185.539 32.4937V26.6092C185.539 22.0098 183.98 19.6425 182.067 17.7486L175.193 11.1877L164.068 0.568558V7.67056C164.068 11.8641 165.627 13.8933 167.54 15.7195L172.713 20.657L174.343 22.2127C174.839 22.6862 175.193 23.2273 175.193 24.2419V25.3917L164.068 14.7726V21.8745C164.068 26.0681 165.627 28.0972 167.54 29.9235L168.958 31.3439L170.587 32.8995C171.083 33.373 171.438 33.9141 171.438 34.9287V36.0785L163.998 28.9765V36.0785C163.998 41.5572 167.328 43.1805 171.438 43.1805H185.468V32.4937H185.539Z" fill="#8F9090"/>
<path d="M239.462 0.568558C232.943 6.11488 225.503 10.2408 217.567 13.5551L245.84 32.9672L244.21 33.7112L232.518 26.271C228.692 23.8361 219.267 25.527 217.354 28.6384L239.108 43.2482C245.131 37.7018 252.5 33.3054 261.074 29.9911L232.447 10.9172L233.935 9.76732L243.218 16.1253C247.824 19.3043 251.508 20.116 261.499 15.4489L239.462 0.568558Z" fill="#8F9090"/>
<path d="M276.521 23.4302C272.27 22.8215 270.498 20.4541 270.498 17.5457C270.498 12.1347 276.025 10.6466 283.182 10.6466C292.961 10.6466 297 13.0816 297.283 17.5457H287.221C287.221 16.6664 286.725 16.1929 285.875 15.8548C285.095 15.5166 284.103 15.3813 283.182 15.3813C280.631 15.3813 279.71 15.99 279.71 16.8693C279.71 17.4781 279.994 17.8163 280.844 17.9515L291.189 19.4396C295.583 20.0483 298.275 22.0098 298.275 25.527C298.275 30.6675 293.882 33.0348 284.174 33.0348C277.513 33.0348 270.215 32.1555 270.215 26.0005H280.631C280.631 26.6768 280.915 27.1503 281.552 27.4885C282.19 27.759 283.182 27.962 284.529 27.962C287.221 27.962 288.001 27.2856 288.001 26.271C288.001 25.6623 287.575 25.0535 286.442 24.8506L276.521 23.4302Z" fill="#8F9090"/>
<path d="M300.755 11.3907H309.4V24.1066C309.4 26.8121 311.03 27.6914 313.864 27.6914C316.698 27.6914 318.328 26.8121 318.328 24.1066V11.3907H326.973V24.3771C326.973 31.0733 322.792 33.1024 313.864 33.1024C304.936 33.1024 300.755 31.0733 300.755 24.3771V11.3907Z" fill="#8F9090"/>
<path d="M329.311 27.8943L342.491 16.6664H330.232V11.3907H354.112V15.9224L341.286 27.0827H353.829V32.3584H329.311V27.8943Z" fill="#8F9090"/>
<path d="M356.45 11.3907H365.095V24.1066C365.095 26.8121 366.725 27.6914 369.559 27.6914C372.394 27.6914 374.023 26.8121 374.023 24.1066V11.3907H382.668V24.3771C382.668 31.0733 378.487 33.1024 369.559 33.1024C360.631 33.1024 356.45 31.0733 356.45 24.3771V11.3907Z" fill="#8F9090"/>
<path d="M425.396 11.3907H416.751V32.3584H425.396V11.3907Z" fill="#8F9090"/>
<path d="M386.494 32.3584H394.927L394.785 24.8506L403.217 32.3584H414.271L402.225 21.604L414.909 11.3907H404.351L394.927 18.6279V11.3907H386.494V32.3584Z" fill="#8F9090"/>
</svg>
