<svg width="251" height="109" viewBox="0 0 251 109" fill="none" xmlns="http://www.w3.org/2000/svg">
<g filter="url(#filter0_d)">
<path fill-rule="evenodd" clip-rule="evenodd" d="M61.4437 77.023L62.8174 79.3546C62.8174 79.3546 4 72.5608 4 50.3397C4 30.3032 54.5523 21 82.2858 21C143.044 21 158.225 36.2323 158.225 36.2323C158.225 36.2323 138.156 29.1023 100.838 29.097C38.8748 29.088 20.2403 47.511 20.2157 53.7079C20.1462 71.3904 61.4437 77.023 61.4437 77.023Z" fill="#1F93CE"/>
</g>
<g filter="url(#filter1_d)">
<path fill-rule="evenodd" clip-rule="evenodd" d="M37 0L69.471 100.826L101.831 0H91.6484L69.9291 69.1525L47.524 0H37Z" fill="#8BC743"/>
</g>
<path d="M100.175 73H96.9C96.55 73 96.3417 72.825 96.275 72.475L92.4 57.5C92.2833 57.1167 92.45 56.925 92.9 56.925H95.25C95.5833 56.925 95.7833 57.1 95.85 57.45L98.475 69.75H98.575L101.2 57.45C101.267 57.1 101.467 56.925 101.8 56.925H104.15C104.567 56.925 104.733 57.1167 104.65 57.5L100.775 72.475C100.692 72.825 100.492 73 100.175 73ZM109.962 57.45V72.475C109.962 72.825 109.787 73 109.437 73H107.312C106.962 73 106.787 72.825 106.787 72.475V57.45C106.787 57.1 106.962 56.925 107.312 56.925H109.437C109.787 56.925 109.962 57.1 109.962 57.45ZM112.927 68.9V68.4C112.927 68.05 113.102 67.875 113.452 67.875H115.577C115.927 67.875 116.102 68.05 116.102 68.4V68.6C116.102 69.2333 116.227 69.6667 116.477 69.9C116.727 70.1333 117.185 70.25 117.852 70.25H119.027C119.677 70.25 120.127 70.125 120.377 69.875C120.644 69.625 120.777 69.1583 120.777 68.475V68.175C120.777 67.6917 120.577 67.325 120.177 67.075C119.794 66.8083 119.31 66.65 118.727 66.6C118.144 66.55 117.51 66.4583 116.827 66.325C116.16 66.175 115.535 65.9917 114.952 65.775C114.369 65.5417 113.877 65.1 113.477 64.45C113.094 63.7833 112.902 62.9333 112.902 61.9V61.025C112.902 59.725 113.269 58.7167 114.002 58C114.735 57.2833 115.752 56.925 117.052 56.925H119.552C120.869 56.925 121.894 57.2833 122.627 58C123.36 58.7167 123.727 59.725 123.727 61.025V61.5C123.727 61.85 123.552 62.025 123.202 62.025H121.077C120.727 62.025 120.552 61.85 120.552 61.5V61.35C120.552 60.7 120.427 60.2583 120.177 60.025C119.927 59.7917 119.469 59.675 118.802 59.675H117.827C117.144 59.675 116.677 59.8083 116.427 60.075C116.194 60.325 116.077 60.825 116.077 61.575V62.05C116.077 62.8333 116.76 63.2833 118.127 63.4C119.544 63.5167 120.802 63.8 121.902 64.25C122.485 64.5 122.969 64.95 123.352 65.6C123.752 66.2333 123.952 67.05 123.952 68.05V68.9C123.952 70.2 123.585 71.2083 122.852 71.925C122.119 72.6417 121.102 73 119.802 73H117.077C115.777 73 114.76 72.6417 114.027 71.925C113.294 71.2083 112.927 70.2 112.927 68.9ZM129.454 73H127.329C126.979 73 126.804 72.825 126.804 72.475V57.45C126.804 57.1 126.979 56.925 127.329 56.925H129.454C129.804 56.925 129.979 57.1 129.979 57.45V63.325C129.979 63.5083 130.079 63.6 130.279 63.6H134.504C134.687 63.6 134.779 63.5083 134.779 63.325V57.45C134.779 57.1 134.954 56.925 135.304 56.925H137.429C137.779 56.925 137.954 57.1 137.954 57.45V72.475C137.954 72.825 137.779 73 137.429 73H135.304C134.954 73 134.779 72.825 134.779 72.475V66.625C134.779 66.4417 134.687 66.35 134.504 66.35H130.279C130.079 66.35 129.979 66.4417 129.979 66.625V72.475C129.979 72.825 129.804 73 129.454 73ZM143.808 73H141.733C141.383 73 141.208 72.825 141.208 72.475V57.45C141.208 57.1 141.383 56.925 141.733 56.925H143.608C143.958 56.925 144.191 57.0417 144.308 57.275L149.358 66.75H149.458V57.45C149.458 57.1 149.633 56.925 149.983 56.925H152.058C152.408 56.925 152.583 57.1 152.583 57.45V72.475C152.583 72.825 152.408 73 152.058 73H150.233C149.866 73 149.6 72.8333 149.433 72.5L144.433 63.2H144.333V72.475C144.333 72.825 144.158 73 143.808 73ZM164.057 56.925H166.157C166.524 56.925 166.707 57.0917 166.707 57.425V68.925C166.707 70.225 166.34 71.2333 165.607 71.95C164.89 72.65 163.882 73 162.582 73H159.832C158.515 73 157.499 72.65 156.782 71.95C156.065 71.25 155.707 70.2417 155.707 68.925V57.45C155.707 57.1 155.882 56.925 156.232 56.925H158.357C158.707 56.925 158.882 57.1 158.882 57.45V68.775C158.882 69.3083 158.99 69.6917 159.207 69.925C159.44 70.1417 159.815 70.25 160.332 70.25H162.057C162.59 70.25 162.965 70.1417 163.182 69.925C163.415 69.6917 163.532 69.3083 163.532 68.775V57.45C163.532 57.1 163.707 56.925 164.057 56.925ZM181.914 73H179.189C177.873 73 176.856 72.65 176.139 71.95C175.423 71.25 175.064 70.2417 175.064 68.925V61C175.064 59.6833 175.423 58.675 176.139 57.975C176.856 57.275 177.873 56.925 179.189 56.925H181.914C183.214 56.925 184.223 57.2833 184.939 58C185.673 58.7 186.039 59.7 186.039 61V62.175C186.039 62.5417 185.856 62.725 185.489 62.725H183.389C183.039 62.725 182.864 62.5417 182.864 62.175V61.15C182.864 60.6167 182.748 60.2417 182.514 60.025C182.298 59.7917 181.923 59.675 181.389 59.675H179.689C179.173 59.675 178.798 59.7917 178.564 60.025C178.348 60.2417 178.239 60.6167 178.239 61.15V68.775C178.239 69.3083 178.348 69.6917 178.564 69.925C178.798 70.1417 179.173 70.25 179.689 70.25H181.389C181.923 70.25 182.298 70.1417 182.514 69.925C182.748 69.6917 182.864 69.3083 182.864 68.775V67.75C182.864 67.3833 183.039 67.2 183.389 67.2H185.489C185.856 67.2 186.039 67.3833 186.039 67.75V68.925C186.039 70.225 185.673 71.2333 184.939 71.95C184.223 72.65 183.214 73 181.914 73ZM190.442 73H188.042C187.742 73 187.642 72.825 187.742 72.475L191.692 57.45C191.808 57.1 192.058 56.925 192.442 56.925H195.767C196.183 56.925 196.433 57.1 196.517 57.45L200.467 72.475C200.567 72.825 200.467 73 200.167 73H197.767C197.583 73 197.458 72.9667 197.392 72.9C197.325 72.8167 197.275 72.675 197.242 72.475L196.542 69.725H191.667L190.967 72.475C190.933 72.675 190.875 72.8167 190.792 72.9C190.725 72.9667 190.608 73 190.442 73ZM194.067 59.95L192.267 67.175H195.967L194.167 59.95H194.067ZM205.333 73H203.208C202.858 73 202.683 72.825 202.683 72.475V57.45C202.683 57.1 202.858 56.925 203.208 56.925H209.158C210.458 56.925 211.474 57.2833 212.208 58C212.941 58.7167 213.308 59.725 213.308 61.025V62.975C213.308 64.8583 212.566 66.1083 211.083 66.725V66.825L213.758 72.4C213.908 72.8 213.766 73 213.333 73H211.308C211.008 73 210.791 72.9667 210.658 72.9C210.524 72.8333 210.416 72.6917 210.333 72.475L207.833 67.075H206.158C205.958 67.075 205.858 67.1667 205.858 67.35V72.475C205.858 72.825 205.683 73 205.333 73ZM206.133 64.525H208.583C209.116 64.525 209.508 64.4167 209.758 64.2C210.008 63.9667 210.133 63.6 210.133 63.1V61.15C210.133 60.6333 210.008 60.2583 209.758 60.025C209.508 59.7917 209.116 59.675 208.583 59.675H206.133C205.949 59.675 205.858 59.7667 205.858 59.95V64.25C205.858 64.4333 205.949 64.525 206.133 64.525ZM215.954 68.9V68.4C215.954 68.05 216.129 67.875 216.479 67.875H218.604C218.954 67.875 219.129 68.05 219.129 68.4V68.6C219.129 69.2333 219.254 69.6667 219.504 69.9C219.754 70.1333 220.213 70.25 220.879 70.25H222.054C222.704 70.25 223.154 70.125 223.404 69.875C223.671 69.625 223.804 69.1583 223.804 68.475V68.175C223.804 67.6917 223.604 67.325 223.204 67.075C222.821 66.8083 222.338 66.65 221.754 66.6C221.171 66.55 220.538 66.4583 219.854 66.325C219.188 66.175 218.563 65.9917 217.979 65.775C217.396 65.5417 216.904 65.1 216.504 64.45C216.121 63.7833 215.929 62.9333 215.929 61.9V61.025C215.929 59.725 216.296 58.7167 217.029 58C217.763 57.2833 218.779 56.925 220.079 56.925H222.579C223.896 56.925 224.921 57.2833 225.654 58C226.388 58.7167 226.754 59.725 226.754 61.025V61.5C226.754 61.85 226.579 62.025 226.229 62.025H224.104C223.754 62.025 223.579 61.85 223.579 61.5V61.35C223.579 60.7 223.454 60.2583 223.204 60.025C222.954 59.7917 222.496 59.675 221.829 59.675H220.854C220.171 59.675 219.704 59.8083 219.454 60.075C219.221 60.325 219.104 60.825 219.104 61.575V62.05C219.104 62.8333 219.788 63.2833 221.154 63.4C222.571 63.5167 223.829 63.8 224.929 64.25C225.513 64.5 225.996 64.95 226.379 65.6C226.779 66.2333 226.979 67.05 226.979 68.05V68.9C226.979 70.2 226.613 71.2083 225.879 71.925C225.146 72.6417 224.129 73 222.829 73H220.104C218.804 73 217.788 72.6417 217.054 71.925C216.321 71.2083 215.954 70.2 215.954 68.9Z" fill="black"/>
<defs>
<filter id="filter0_d" x="0" y="21" width="162.225" height="66.3546" filterUnits="userSpaceOnUse" color-interpolation-filters="sRGB">
<feFlood flood-opacity="0" result="BackgroundImageFix"/>
<feColorMatrix in="SourceAlpha" type="matrix" values="0 0 0 0 0 0 0 0 0 0 0 0 0 0 0 0 0 0 127 0"/>
<feOffset dy="4"/>
<feGaussianBlur stdDeviation="2"/>
<feColorMatrix type="matrix" values="0 0 0 0 0 0 0 0 0 0 0 0 0 0 0 0 0 0 0.25 0"/>
<feBlend mode="normal" in2="BackgroundImageFix" result="effect1_dropShadow"/>
<feBlend mode="normal" in="SourceGraphic" in2="effect1_dropShadow" result="shape"/>
</filter>
<filter id="filter1_d" x="33" y="0" width="72.8312" height="108.826" filterUnits="userSpaceOnUse" color-interpolation-filters="sRGB">
<feFlood flood-opacity="0" result="BackgroundImageFix"/>
<feColorMatrix in="SourceAlpha" type="matrix" values="0 0 0 0 0 0 0 0 0 0 0 0 0 0 0 0 0 0 127 0"/>
<feOffset dy="4"/>
<feGaussianBlur stdDeviation="2"/>
<feColorMatrix type="matrix" values="0 0 0 0 0 0 0 0 0 0 0 0 0 0 0 0 0 0 0.25 0"/>
<feBlend mode="normal" in2="BackgroundImageFix" result="effect1_dropShadow"/>
<feBlend mode="normal" in="SourceGraphic" in2="effect1_dropShadow" result="shape"/>
</filter>
</defs>
</svg>
