<?xml version="1.0"?>
<svg xmlns="http://www.w3.org/2000/svg" xmlns:xlink="http://www.w3.org/1999/xlink" xmlns:svgjs="http://svgjs.com/svgjs" version="1.1" width="512" height="512" x="0" y="0" viewBox="0 0 512 512" style="enable-background:new 0 0 512 512" xml:space="preserve" class=""><g><g xmlns="http://www.w3.org/2000/svg"><path d="m256 0-154.947 256 154.947 256c141.16 0 256-114.84 256-256s-114.84-256-256-256z" fill="#699603" data-original="#344aa3" style="" class=""/><path d="m0 256c0 141.16 114.84 256 256 256v-512c-141.16 0-256 114.84-256 256z" fill="#7bb004" data-original="#1365c2" style="" class=""/><path d="m256 60-118.632 196 118.632 196c108.075 0 196-87.925 196-196s-87.925-196-196-196z" fill="#7bb004" data-original="#1365c2" style="" class=""/><path d="m60 256c0 108.075 87.925 196 196 196v-392c-108.075 0-196 87.925-196 196z" fill="#a2d729" data-original="#0d86d9" style="" class=""/><path d="m362 211h-106l-45 45 45 45h106z" fill="#d0ff66" data-original="#bfebff" style="" class=""/><path d="m150 211h106v90h-106z" fill="#ffffff" data-original="#ffffff" style="" class=""/></g></g></svg>
