<?xml version="1.0"?>
<svg xmlns="http://www.w3.org/2000/svg" xmlns:xlink="http://www.w3.org/1999/xlink" xmlns:svgjs="http://svgjs.com/svgjs" version="1.1" width="512" height="512" x="0" y="0" viewBox="0 0 512 512" style="enable-background:new 0 0 512 512" xml:space="preserve" class=""><g><g xmlns="http://www.w3.org/2000/svg"><circle cx="256" cy="256" r="17" fill="#ffffff" data-original="#000000" style="" class=""/><path d="m448.75 87.54-45.456 45.337c13.536 16.172 24.469 34.589 32.126 54.633l-15.13 33.57-61.139-6.077c5.061 12.69 7.849 26.523 7.849 40.997 0 14.472-2.787 28.304-7.847 40.992l61.137-6.072c.1.19 15.14 33.54 15.14 33.54-11.609 30.424-30.763 57.109-55.134 77.836l45.441 45.323c52.911-46.894 86.263-115.358 86.263-191.619 0-64.509-23.876-123.438-63.25-168.46z" fill="#ffffff" data-original="#000000" style="" class=""/><path d="m355.667 420.103c-9.921 6.041-20.419 11.223-31.417 15.407l-31.4-15.23 10.566-63.932c-14.387 6.826-30.462 10.652-47.416 10.652s-33.029-3.826-47.416-10.652l10.566 63.932-31.4 15.23c-10.998-4.184-21.497-9.366-31.417-15.407l-46.318 46.197c41.405 28.809 91.725 45.7 145.985 45.7s104.58-16.891 145.985-45.699z" fill="#ffffff" data-original="#000000" style="" class=""/><path d="m337 256c0-44.664-36.336-81-81-81s-81 36.336-81 81 36.336 81 81 81 81-36.336 81-81zm-128 0c0-25.916 21.084-47 47-47s47 21.084 47 47-21.084 47-47 47-47-21.084-47-47z" fill="#ffffff" data-original="#000000" style="" class=""/><path d="m86.263 447.619 45.441-45.323c-24.371-20.727-43.525-47.413-55.134-77.836 0 0 15.04-33.35 15.14-33.54l61.137 6.072c-5.06-12.688-7.847-26.52-7.847-40.992 0-14.474 2.788-28.307 7.849-40.997l-61.139 6.077-15.13-33.57c7.657-20.043 18.59-38.46 32.126-54.633l-45.456-45.337c-39.374 45.022-63.25 103.951-63.25 168.46 0 76.261 33.352 144.725 86.263 191.619z" fill="#ffffff" data-original="#000000" style="" class=""/><path d="m129.683 111.429c33.758-29.524 77.941-47.429 126.317-47.429s92.559 17.905 126.317 47.429l45.405-45.287c-45.419-41.105-105.646-66.142-171.722-66.142s-126.303 25.037-171.722 66.142z" fill="#ffffff" data-original="#000000" style="" class=""/></g></g></svg>
