<svg id="Capa_1" enable-background="new 0 0 512 512" height="512" viewBox="0 0 512 512" width="512" xmlns="http://www.w3.org/2000/svg"><g><circle cx="256" cy="256" r="58.009"/><path d="m256 0c-141.385 0-256 114.615-256 256s114.615 256 256 256 256-114.615 256-256-114.615-256-256-256zm34.212 436.086v-99c-10.522 4.456-22.085 6.922-34.212 6.922-12.128 0-23.691-2.466-34.213-6.923v99c-84.105-15.882-147.894-89.21-149.043-177.659l97.453 17.184c-1.441-6.308-2.205-12.871-2.205-19.61 0-17.597 5.195-34.002 14.126-47.769l-97.543-17.199c26.223-69.156 93.077-118.32 171.425-118.32s145.203 49.165 171.426 118.321l-97.542 17.199c8.931 13.766 14.125 30.171 14.125 47.767 0 6.739-.764 13.303-2.205 19.612l97.453-17.184c-1.15 88.45-64.94 161.778-149.045 177.659z"/></g></svg>