<?xml version="1.0" encoding="iso-8859-1"?>
<!-- Generator: Adobe Illustrator 19.0.0, SVG Export Plug-In . SVG Version: 6.00 Build 0)  -->
<svg version="1.1" id="Capa_1" xmlns="http://www.w3.org/2000/svg" xmlns:xlink="http://www.w3.org/1999/xlink" x="0px" y="0px"
	 viewBox="0 0 464 464" style="enable-background:new 0 0 464 464;" xml:space="preserve">
<path style="fill:#74818C;" d="M64,248c66.243-0.031,119.969,53.645,120,119.888c0.008,16.559-3.413,32.94-10.048,48.112h116.096
	c-26.54-60.694,1.147-131.412,61.841-157.952c30.637-13.397,65.475-13.397,96.111,0V176H16v82.048
	C31.134,251.418,47.478,247.997,64,248z"/>
<path style="fill:#5D6D7E;" d="M365.76,176c-13.179,73.874-83.75,123.076-157.623,109.897C152.102,275.9,108.237,232.035,98.24,176
	H16v82.048c60.694-26.54,131.412,1.147,157.952,61.841c13.397,30.637,13.397,65.475,0,96.111h116.096
	c-26.54-60.694,1.147-131.412,61.841-157.952c30.637-13.397,65.475-13.397,96.111,0V176H365.76z"/>
<path style="fill:#34495E;" d="M232,0C103.87,0,0,103.87,0,232s103.87,232,232,232s232-103.87,232-232S360.13,0,232,0z M232,408
	c-97.202,0-176-78.798-176-176S134.798,56,232,56s176,78.798,176,176S329.202,408,232,408z"/>
<path style="fill:#314559;" d="M232,24C117.125,24,24,117.125,24,232s93.125,208,208,208s208-93.125,208-208S346.875,24,232,24z
	 M232,408c-97.202,0-176-78.798-176-176S134.798,56,232,56s176,78.798,176,176S329.202,408,232,408z"/>
<g>
	<path style="fill:#AAB5BD;" d="M72.488,306.4l-50.752,23.648c23.108,49.394,62.822,89.108,112.216,112.216l23.648-50.752
		C120.14,373.981,90.019,343.86,72.488,306.4L72.488,306.4z"/>
	<path style="fill:#AAB5BD;" d="M306.4,391.512l23.664,50.752c49.388-23.111,89.096-62.825,112.2-112.216L391.512,306.4
		C373.98,343.86,343.86,373.98,306.4,391.512L306.4,391.512z"/>
</g>
<g>
	<path style="fill:#969EA3;" d="M157.6,391.512c-4.587-2.133-9.059-4.467-13.416-7l-0.488-0.28c-4.304-2.507-8.491-5.173-12.56-8
		l-0.368-0.264c-16.589-11.685-31.043-26.139-42.728-42.728l-0.264-0.368c-2.848-4.064-5.515-8.253-8-12.568l-0.28-0.48
		c-2.512-4.363-4.845-8.835-7-13.416l-29,13.52c20.719,44.275,56.322,79.872,100.6,100.584l13.52-29L157.6,391.512z"/>
	<path style="fill:#969EA3;" d="M420.512,319.904l-29-13.504c-2.133,4.581-4.467,9.053-7,13.416l-0.28,0.48
		c-2.507,4.315-5.173,8.504-8,12.568l-0.264,0.368c-11.685,16.589-26.139,31.043-42.728,42.728l-0.368,0.264
		c-4.064,2.837-8.251,5.504-12.56,8l-0.488,0.28c-4.363,2.512-8.835,4.845-13.416,7l13.52,29
		C364.203,399.785,399.8,364.182,420.512,319.904L420.512,319.904z"/>
</g>
<g>
	<path style="fill:#FF7059;" d="M355.6,394.568l-16.312-23.296c-4.224,3.259-8.592,6.323-13.104,9.192l16.312,23.288L355.6,394.568z
		"/>
	<path style="fill:#FF7059;" d="M381.952,370.64l-20.12-20.12c-3.6,3.947-7.371,7.717-11.312,11.312l20.12,20.12L381.952,370.64z"/>
	<path style="fill:#FF7059;" d="M404.592,343.08l-24.128-16.896c-2.875,4.517-5.939,8.885-9.192,13.104l24.136,16.904
		L404.592,343.08z"/>
	<path style="fill:#FF7059;" d="M93.656,381.656l19.824-19.824c-3.941-3.6-7.712-7.371-11.312-11.312l-19.824,19.824L93.656,381.656
		z"/>
	<path style="fill:#FF7059;" d="M68.592,356.192l24.136-16.904c-3.253-4.224-6.317-8.592-9.192-13.104L59.408,343.08L68.592,356.192
		z"/>
	<path style="fill:#FF7059;" d="M121.744,403.408l16.072-22.944c-4.512-2.875-8.88-5.939-13.104-9.192l-16.072,22.952
		L121.744,403.408z"/>
</g>
<path style="fill:#C0FAFF;" d="M184,216h96l-48.192,48.192L184,216z"/>
<g>
	<path style="fill:#FF7059;" d="M304,208h16v16h-16V208z"/>
	<path style="fill:#FF7059;" d="M336,208h16v16h-16V208z"/>
	<path style="fill:#FF7059;" d="M112,208h16v16h-16V208z"/>
	<path style="fill:#FF7059;" d="M144,208h16v16h-16V208z"/>
</g>
<g>
	<path style="fill:#314559;" d="M224,368h16v16h-16V368z"/>
	<path style="fill:#314559;" d="M224,296h16v56h-16V296z"/>
</g>
<g>
</g>
<g>
</g>
<g>
</g>
<g>
</g>
<g>
</g>
<g>
</g>
<g>
</g>
<g>
</g>
<g>
</g>
<g>
</g>
<g>
</g>
<g>
</g>
<g>
</g>
<g>
</g>
<g>
</g>
</svg>
