<?xml version="1.0"?>
<svg xmlns="http://www.w3.org/2000/svg" xmlns:xlink="http://www.w3.org/1999/xlink" xmlns:svgjs="http://svgjs.com/svgjs" version="1.1" width="512" height="512" x="0" y="0" viewBox="0 0 512 512.24762" style="enable-background:new 0 0 512 512" xml:space="preserve" class=""><g><path xmlns="http://www.w3.org/2000/svg" d="m84.253906 10.207031c-8.164062 5.4375-16.023437 11.328125-23.535156 17.636719-2.554688 1.882812-3.851562 5.027344-3.367188 8.160156.480469 3.136719 2.660157 5.746094 5.660157 6.777344s6.324219.3125 8.628906-1.863281c7.039063-5.90625 14.40625-11.410157 22.058594-16.496094 3.925781-2.609375 4.992187-7.90625 2.386719-11.832031-2.609376-3.925782-7.90625-4.992188-11.832032-2.382813zm0 0" fill="#1d7def" data-original="#000000" style="" class=""/><path xmlns="http://www.w3.org/2000/svg" d="m1.265625 98.585938c-2.355469 4.082031-.957031 9.304687 3.128906 11.660156 4.082031 2.355468 9.304688.957031 11.660157-3.128906 8.550781-14.8125 18.613281-28.699219 30.019531-41.445313 2.066406-2.265625 2.761719-5.46875 1.8125-8.382813-.945313-2.917968-3.386719-5.105468-6.390625-5.722656-3.003906-.621094-6.109375.417969-8.136719 2.722656-12.191406 13.625-22.945313 28.46875-32.09375 44.296876zm0 0" fill="#1d7def" data-original="#000000" style="" class=""/><path xmlns="http://www.w3.org/2000/svg" d="m415.652344 53.613281c-1.6875 1.511719-2.707032 3.632813-2.832032 5.894531-.125 2.261719.65625 4.476563 2.167969 6.164063 11.410157 12.746094 21.46875 26.632813 30.019531 41.445313 2.355469 4.085937 7.578126 5.484374 11.660157 3.128906 4.085937-2.355469 5.484375-7.578125 3.128906-11.660156-9.148437-15.828126-19.902344-30.671876-32.09375-44.296876-3.140625-3.511718-8.535156-3.816406-12.050781-.675781zm0 0" fill="#1d7def" data-original="#000000" style="" class=""/><path xmlns="http://www.w3.org/2000/svg" d="m230.53125 273.3125c23.566406 0 42.667969-19.101562 42.667969-42.664062 0-23.566407-19.101563-42.667969-42.667969-42.667969-23.5625 0-42.667969 19.101562-42.667969 42.667969.03125 23.550781 19.117188 42.636718 42.667969 42.664062zm0-68.265625c14.140625 0 25.601562 11.460937 25.601562 25.601563 0 14.136718-11.460937 25.597656-25.601562 25.597656-14.136719 0-25.601562-11.460938-25.601562-25.597656 0-14.140626 11.464843-25.601563 25.601562-25.601563zm0 0" fill="#1d7def" data-original="#000000" style="" class=""/><path xmlns="http://www.w3.org/2000/svg" d="m43.738281 249.371094c.578125 5.820312 1.449219 11.542968 2.558594 17.191406.066406.359375.121094.726562.1875 1.085938 1.152344 5.742187 2.558594 11.382812 4.265625 16.929687l.230469.851563c1.707031 5.632812 3.699219 11.148437 5.972656 16.546874.085937.199219.136719.402344.222656.605469l.050781.085938c11.335938 27.097656 28.839844 51.171875 51.125 70.308593l.214844.1875c2.070313 1.773438 4.171875 3.496094 6.320313 5.179688l1.707031 1.347656c1.5625 1.195313 3.140625 2.355469 4.746094 3.5 1.144531.851563 2.292968 1.703125 3.464844 2.464844.945312.65625 1.910156 1.28125 2.875 1.910156 1.800781 1.1875 3.601562 2.363282 5.433593 3.492188l.761719.449218c27.09375 16.414063 57.941406 25.613282 89.597656 26.710938 2.304688.101562 4.574219.171875 6.828125.171875h.5625c2.238281 0 4.507813-.070313 6.828125-.171875 31.65625-1.097656 62.507813-10.296875 89.601563-26.710938l.757812-.449218c1.835938-1.128906 3.636719-2.304688 5.433594-3.492188.964844-.628906 1.929687-1.253906 2.878906-1.910156 1.167969-.804688 2.320313-1.628906 3.464844-2.464844 1.601563-1.144531 3.179687-2.304687 4.742187-3.5l1.707032-1.347656c2.152344-1.707031 4.265625-3.414062 6.324218-5.179688l.210938-.1875c22.285156-19.136718 39.792969-43.214843 51.125-70.316406l.050781-.078125c.085938-.195312.136719-.398437.214844-.597656 2.226563-5.398437 4.265625-10.921875 5.972656-16.554687l.230469-.851563c1.707031-5.546875 3.105469-11.1875 4.265625-16.929687.070313-.359376.121094-.726563.1875-1.085938 1.101563-5.648438 1.972656-11.371094 2.5625-17.191406 0-.28125.039063-.582032.066406-.855469.554688-5.886719.851563-11.835937.851563-17.859375.003906-103.703125-84.0625-187.773438-187.765625-187.777344-103.703125 0-187.773438 84.066406-187.777344 187.769532 0 6.023437.316406 11.945312.855469 17.859374.042968.28125.050781.582032.085937.863282zm16.980469-34.671875c13.289062 5.289062 27.515625 7.8125 41.8125 7.414062 20.773438-.667969 40.78125-8.023437 57.039062-20.972656-2.820312 6.828125-4.636718 14.03125-5.394531 21.382813v.289062c-2.992187 29.164062 10.878907 57.488281 35.753907 73.003906s56.414062 15.515625 81.289062 0 38.746094-43.839844 35.753906-73.003906l-.042968-.289062c-.753907-7.351563-2.570313-14.554688-5.390626-21.382813 16.246094 12.941406 36.230469 20.296875 56.992188 20.972656 14.296875.398438 28.527344-2.125 41.8125-7.414062.5625 5.296875.847656 10.621093.855469 15.949219 0 5.503906-.316407 10.929687-.855469 16.304687-.167969 1.777344-.46875 3.535156-.699219 5.308594-.453125 3.558593-.945312 7.109375-1.621093 10.597656-.402344 2.109375-.914063 4.199219-1.390626 6.289063-.714843 3.074218-1.484374 6.128906-2.355468 9.140624-.648438 2.210938-1.355469 4.410157-2.089844 6.605469-.46875 1.382813-1.007812 2.730469-1.503906 4.09375-18.882813-4.734375-38.28125-7.132812-57.753906-7.140625-72.4375 0-84.050782 65.46875-85.195313 118.433594-1.492187.171875-2.859375.257812-4.265625.375-4.265625.324219-8.535156.65625-12.910156.65625-4.378906 0-8.636719-.332031-12.914063-.65625-1.433593-.117188-2.796875-.203125-4.265625-.375-1.195312-52.964844-12.808594-118.433594-85.246094-118.433594-19.480468.003906-38.886718 2.40625-57.78125 7.140625-.492187-1.363281-1.03125-2.710937-1.5-4.09375-.734374-2.195312-1.441406-4.394531-2.089843-6.605469-.855469-3.011718-1.640625-6.066406-2.355469-9.140624-.480469-2.089844-.992188-4.179688-1.390625-6.289063-.675781-3.488281-1.171875-7.039063-1.625-10.597656-.230469-1.773438-.527344-3.53125-.699219-5.308594-.511718-5.375-.828125-10.800781-.828125-16.304687.007813-5.328126.292969-10.652344.855469-15.949219zm157.867188-42.582031c1.789062-.359376 3.617187-.632813 5.460937-.851563h.195313c4.199218-.457031 8.433593-.457031 12.628906 0h.195312c1.84375.195313 3.671875.46875 5.464844.851563.238281.050781.476562.128906.714844.1875 18.878906 4.140624 34.601562 17.128906 42.230468 34.886718l.15625.347656c.65625 1.5625 1.226563 3.15625 1.757813 4.777344.082031.273438.1875.53125.261719.804688.460937 1.484375.855468 3.003906 1.171875 4.53125.09375.398437.203125.800781.289062 1.210937.289063 1.46875.496094 2.96875.683594 4.472657.058594.460937.144531.910156.195313 1.371093.1875 1.957031.296874 3.933594.296874 5.976563 0 32.988281-26.742187 59.730468-59.730468 59.730468-32.992188 0-59.734375-26.742187-59.734375-59.730468 0-2.007813.109375-3.988282.296875-5.976563.050781-.460937.136718-.910156.199218-1.371093.1875-1.503907.390626-3.003907.679688-4.472657.085938-.410156.199219-.8125.292969-1.210937.339843-1.527344.707031-3.046875 1.167969-4.53125.078124-.273438.179687-.53125.265624-.804688.527344-1.621094 1.097657-3.214844 1.757813-4.777344l.152344-.347656c7.628906-17.757812 23.351562-30.746094 42.230469-34.886718.214843-.058594.453124-.136719.71875-.1875zm139.210937 171.84375c-25.304687-8.527344-51.5-14.132813-78.078125-16.707032 13.191406-23.78125 33.347656-28.339844 53.210938-28.339844 17.183593-.003906 34.308593 2 51.023437 5.972657-6.878906 14.167969-15.679687 27.316406-26.15625 39.074219zm-16 15.8125c-1.492187 1.296874-2.984375 2.5625-4.523437 3.832031-3.589844 2.882812-7.25 5.691406-11.089844 8.285156-.445313.308594-.90625.5625-1.351563.855469-3.878906 2.585937-7.859375 5.015625-11.945312 7.285156l-1.980469 1.085938c-9.222656 4.953124-18.886719 9.042968-28.867188 12.210937l-1.648437.511719c-5.066406 1.550781-10.238281 2.910156-15.476563 3.984375 0-.351563 0-.691407.039063-1.050781.164063-4.886719.421875-9.589844.785156-14.078126.054688-.613281.113281-1.179687.171875-1.785156.382813-4.367187.855469-8.582031 1.425782-12.578125.066406-.46875.144531-.914062.222656-1.382812.621094-4.113281 1.332031-8.0625 2.167968-11.78125l.09375-.410157c.902344-3.960937 1.910157-7.679687 3.054688-11.230468 24.285156 2.074218 48.285156 6.703125 71.601562 13.816406-.902343.808594-1.765624 1.644531-2.679687 2.429688zm-162.765625 33.5625c-9.976562-3.167969-19.640625-7.257813-28.867188-12.210938l-1.980468-1.085938c-4.09375-2.273437-8.078125-4.703124-11.945313-7.285156-.445312-.300781-.90625-.554687-1.347656-.855468-3.824219-2.558594-7.484375-5.398438-11.09375-8.285157-1.535156-1.246093-3.03125-2.558593-4.523437-3.832031-.914063-.785156-1.773438-1.621094-2.671876-2.421875 23.316407-7.109375 47.316407-11.742187 71.605469-13.816406 1.144531 3.523437 2.148438 7.28125 3.054688 11.230469l.09375.410156c.851562 3.71875 1.542969 7.679687 2.167969 11.785156.074218.46875.152343.910156.222656 1.382812.578125 3.992188 1.039062 8.207032 1.421875 12.578126.0625.605468.121093 1.167968.171875 1.78125.367187 4.488281.625 9.191406.785156 14.082031 0 .355469 0 .699219.042969 1.046875-5.257813-1.074219-10.410157-2.429688-15.480469-3.984375zm-101.921875-88.449219c16.71875-3.972657 33.839844-5.976563 51.023437-5.972657 19.863282 0 40.019532 4.558594 53.210938 28.339844-26.578125 2.574219-52.773438 8.179688-78.078125 16.707032-10.476563-11.757813-19.277344-24.90625-26.15625-39.074219zm153.421875-244.90625c81.1875.121093 151.089844 57.335937 167.253906 136.902343-12.179687 6.007813-25.6875 8.816407-39.253906 8.164063-21.914062 0-36.691406-10.425781-53.855469-22.5-17.277343-12.1875-36.878906-25.953125-65.808593-28.222656-5.539063-.636719-11.132813-.636719-16.671876 0-28.929687 2.269531-48.53125 16.035156-65.808593 28.222656-17.160157 12.074219-31.941407 22.5-53.855469 22.5-13.566406.652344-27.074219-2.15625-39.253906-8.164063 16.164062-79.566406 86.066406-136.78125 167.253906-136.902343zm0 0" fill="#1d7def" data-original="#000000" style="" class=""/><path xmlns="http://www.w3.org/2000/svg" d="m94 247.714844c0 4.710937-3.820312 8.53125-8.535156 8.53125-4.710938 0-8.535156-3.820313-8.535156-8.53125 0-4.714844 3.824218-8.535156 8.535156-8.535156 4.714844 0 8.535156 3.820312 8.535156 8.535156zm0 0" fill="#1d7def" data-original="#000000" style="" class=""/><path xmlns="http://www.w3.org/2000/svg" d="m128.132812 247.714844c0 4.710937-3.820312 8.53125-8.535156 8.53125-4.710937 0-8.53125-3.820313-8.53125-8.53125 0-4.714844 3.820313-8.535156 8.53125-8.535156 4.714844 0 8.535156 3.820312 8.535156 8.535156zm0 0" fill="#1d7def" data-original="#000000" style="" class=""/><path xmlns="http://www.w3.org/2000/svg" d="m350 247.714844c0 4.710937-3.820312 8.53125-8.535156 8.53125-4.710938 0-8.535156-3.820313-8.535156-8.53125 0-4.714844 3.824218-8.535156 8.535156-8.535156 4.714844 0 8.535156 3.820312 8.535156 8.535156zm0 0" fill="#1d7def" data-original="#000000" style="" class=""/><path xmlns="http://www.w3.org/2000/svg" d="m239.066406 333.046875c0 4.714844-3.820312 8.535156-8.535156 8.535156-4.710938 0-8.53125-3.820312-8.53125-8.535156 0-4.710937 3.820312-8.53125 8.53125-8.53125 4.714844 0 8.535156 3.820313 8.535156 8.53125zm0 0" fill="#1d7def" data-original="#000000" style="" class=""/><path xmlns="http://www.w3.org/2000/svg" d="m384.132812 247.714844c0 4.710937-3.820312 8.53125-8.535156 8.53125-4.710937 0-8.53125-3.820313-8.53125-8.53125 0-4.714844 3.820313-8.535156 8.53125-8.535156 4.714844 0 8.535156 3.820312 8.535156 8.535156zm0 0" fill="#1d7def" data-original="#000000" style="" class=""/><path xmlns="http://www.w3.org/2000/svg" d="m42.644531 453.367188c.710938.191406 1.445313.289062 2.183594.289062 3.875-.003906 7.261719-2.617188 8.246094-6.363281 2.382812-8.65625 6.792969-16.625 12.859375-23.246094 3.132812-3.519531 2.820312-8.914063-.703125-12.050781-3.519531-3.132813-8.914063-2.820313-12.046875.703125-7.855469 8.621093-13.546875 18.984375-16.605469 30.242187-1.203125 4.554688 1.511719 9.222656 6.066406 10.425782zm0 0" fill="#1d7def" data-original="#000000" style="" class=""/><path xmlns="http://www.w3.org/2000/svg" d="m.132812 461.046875c.378907 5.835937 3.558594 11.128906 8.53125 14.199219v11.402344c0 14.136718 11.460938 25.597656 25.601563 25.597656h68.265625c10.808594-.046875 20.417969-6.875 24.023438-17.066406h207.945312c3.605469 10.191406 13.222656 17.023437 24.03125 17.066406h68.265625c14.140625 0 25.601563-11.460938 25.601563-25.597656v-11.402344c4.976562-3.070313 8.15625-8.363282 8.53125-14.199219 0-35.457031-16.808594-66.140625-48.355469-89.421875 73.417969-94.636719 62.078125-229.742188-26.085938-310.816406-88.164062-81.078125-223.746093-81.078125-311.914062 0-88.164063 81.074218-99.503907 216.179687-26.085938 310.816406-31.546875 23.28125-48.355469 53.964844-48.355469 89.421875zm104.855469 33.777344c-.796875.234375-1.625.355469-2.457031.355469h-68.265625c-4.714844 0-8.535156-3.820313-8.535156-8.53125v-2.832032c.15625.058594.332031.101563.480469.152344 1.882812.648438 3.855468 1.28125 5.972656 1.886719.777344.21875 1.601562.425781 2.40625.636719 1.246094.324218 2.515625.648437 3.847656.964843 1.773438.429688 3.625.855469 5.53125 1.222657 1.152344.230468 2.285156.46875 3.488281.691406 1.511719.289062 3.074219.554687 4.652344.808594.953125.164062 1.945313.316406 2.933594.46875 2.507812.386718 5.105469.75 7.78125 1.085937 1.394531.167969 2.773437.347656 4.226562.511719 1.449219.160156 3.027344.324218 4.582031.476562 1.988282.207032 4.042969.382813 6.136719.5625l3.191407.273438c3.285156.257812 6.738281.46875 10.289062.667968.855469.050782 1.707031.085938 2.5.125 3.335938.171876 6.785156.316407 10.351562.4375zm330.34375-11.007813v2.832032c0 4.710937-3.820312 8.53125-8.535156 8.53125h-68.265625c-.832031 0-1.660156-.121094-2.457031-.355469h.851562c3.613281-.121094 7.101563-.265625 10.464844-.4375l2.320313-.117188c3.617187-.207031 7.125-.429687 10.46875-.683593.921874-.070313 1.800781-.15625 2.714843-.230469 2.277344-.195313 4.515625-.394531 6.664063-.613281 1.449218-.148438 2.894531-.292969 4.308594-.453126 1.621093-.179687 3.175781-.375 4.71875-.574218 2.484374-.3125 4.898437-.65625 7.238281-1.003906l3.171875-.503907c1.546875-.257812 3.066406-.511719 4.542968-.792969 1.347657-.25 2.625-.511718 3.898438-.777343 1.757812-.367188 3.480469-.742188 5.121094-1.136719 1.347656-.324219 2.652344-.648438 3.90625-.980469.777344-.203125 1.578125-.402343 2.332031-.613281 2.175781-.617188 4.152344-1.253906 6.046875-1.902344.164062-.085937.335938-.128906.488281-.1875zm-204.800781-466.503906c84.328125-.046875 160.761719 49.609375 194.988281 126.679688 34.222657 77.070312 19.808594 167.070312-36.769531 229.597656-.171875.1875-.335938.382812-.515625.570312-2.089844 2.277344-4.238281 4.527344-6.433594 6.75-.28125.28125-.5625.582032-.851562.855469-2.203125 2.195313-4.453125 4.339844-6.75 6.433594l-.699219.628906c-2.390625 2.167969-4.832031 4.269531-7.324219 6.351563l-.082031.058593c-12.65625 10.4375-26.472656 19.378907-41.175781 26.648438-.851563.417969-1.707031.855469-2.558594 1.273437-2.015625.964844-4.070313 1.867188-6.128906 2.773438-1.371094.605468-2.738281 1.210937-4.128907 1.792968-1.785156.742188-3.601562 1.441407-5.410156 2.132813s-3.414062 1.296875-5.121094 1.910156c-1.707031.613281-3.257812 1.125-4.90625 1.707031-1.960937.640626-3.933593 1.246094-5.921874 1.835938-1.492188.433594-2.996094.851562-4.496094 1.277344-2.175782.589844-4.371094 1.128906-6.5625 1.648437-1.390625.332031-2.773438.664063-4.171875.964844-2.347657.503906-4.71875.945313-7.09375 1.371094-1.296875.242187-2.558594.496093-3.90625.703125-2.492188.398437-5 .722656-7.507813 1.039062-1.238281.152344-2.460937.34375-3.695312.46875-2.699219.292969-5.421875.488282-8.132813.675782-1.078125.066406-2.132812.1875-3.210937.238281-3.796875.1875-7.609375.28125-11.433594.28125s-7.632812-.105469-11.425781-.316407c-1.074219-.050781-2.132813-.167968-3.207031-.238281-2.714844-.1875-5.4375-.382812-8.132813-.671875-1.238281-.128906-2.457031-.316406-3.695313-.472656-2.507812-.3125-5.019531-.636719-7.511718-1.039062-1.3125-.207032-2.609375-.460938-3.90625-.699219-2.371094-.425781-4.746094-.855469-7.089844-1.375-1.402344-.296875-2.785156-.632813-4.175781-.964844-2.191407-.519531-4.382813-1.058594-6.5625-1.644531-1.5-.410156-3.003907-.855469-4.496094-1.28125-1.988281-.589844-3.957031-1.195313-5.921875-1.835938-1.648438-.539062-3.285156-1.109375-4.90625-1.707031-1.707031-.613281-3.414062-1.25-5.121094-1.910156-1.808594-.691407-3.625-1.390625-5.410156-2.132813-1.390625-.582031-2.753906-1.1875-4.128906-1.792968-2.054688-.902344-4.113282-1.808594-6.125-2.773438-.855469-.410156-1.707032-.851562-2.5625-1.269531-14.703125-7.273438-28.519532-16.214844-41.171875-26.652344l-.085938-.058594c-2.492187-2.054687-4.933593-4.179687-7.320312-6.347656l-.703125-.632813c-2.273438-2.085937-4.523438-4.230468-6.746094-6.433593-.292969-.28125-.574219-.582031-.855469-.851563-2.195312-2.214844-4.339843-4.464844-6.433593-6.75-.179688-.191406-.339844-.386718-.511719-.574218-56.558594-62.527344-70.957031-152.511719-36.738281-229.566407 34.21875-77.054687 110.632812-126.707031 194.945312-126.675781zm-171.304688 367.351562c14.96875 16.625 32.273438 30.984376 51.378907 42.625l.953125.589844c2.730468 1.644532 5.492187 3.234375 8.277344 4.769532l1.964843 1.058593c2.542969 1.363281 5.101563 2.683594 7.679688 3.949219.980469.480469 1.960937.949219 2.953125 1.410156 2.34375 1.109375 4.710937 2.191406 7.097656 3.214844 1.304688.566406 2.628906 1.101562 3.953125 1.640625 2.132813.851563 4.265625 1.707031 6.433594 2.558594 1.65625.625 3.335937 1.203125 5.007812 1.785156 1.902344.65625 3.796875 1.332031 5.71875 1.9375 1.917969.605469 4.007813 1.210937 6.03125 1.789063 1.707031.488281 3.328125.992187 5.019531 1.433593 2.320313.617188 4.667969 1.152344 7.011719 1.707031 1.445313.335938 2.867188.699219 4.3125 1 2.558594.546876 5.210938 1.007813 7.832031 1.457032 1.261719.222656 2.507813.480468 3.78125.683594 2.804688.4375 5.640626.785156 8.480469 1.117187 1.109375.136719 2.21875.316406 3.328125.429687 3.011719.3125 6.058594.527344 9.105469.722657.964844.0625 1.921875.171875 2.882813.222656 4.019531.1875 8.050781.28125 12.101562.28125s8.078125-.105469 12.082031-.316406c.964844-.050781 1.921875-.160157 2.886719-.21875 3.046875-.199219 6.09375-.410157 9.105469-.726563 1.109375-.113281 2.21875-.289062 3.328125-.425781 2.839844-.335937 5.671875-.683594 8.480468-1.121094 1.273438-.203125 2.558594-.457031 3.78125-.679687 2.617188-.453125 5.238282-.914063 7.832032-1.460938 1.441406-.296875 2.867187-.664062 4.265625-.996094 2.347656-.539062 4.695312-1.078124 7.015625-1.707031 1.707031-.445312 3.34375-.949219 5.019531-1.433593 2.019531-.582032 4.035156-1.152344 6.03125-1.792969s3.816406-1.28125 5.71875-1.9375c1.707031-.582031 3.351563-1.160157 5.007813-1.785157 2.160156-.800781 4.265624-1.703124 6.433593-2.558593 1.324219-.539063 2.644531-1.074219 3.953125-1.636719 2.386719-1.023438 4.75-2.109375 7.097656-3.21875.992188-.460938 1.972657-.929688 2.953126-1.40625 2.59375-1.265625 5.152343-2.582031 7.679687-3.953125l1.964844-1.058594c2.785156-1.535156 5.546875-3.125 8.277343-4.769531l.953126-.589844c19.105468-11.640625 36.410156-25.996094 51.378906-42.621094 27.488281 19.914063 41.617187 45.132813 42.019531 75.09375-1.25 1.441407-2.746094 2.652344-4.421875 3.574219-.511719.316407-1.082031.632813-1.707031.964844l-.210938.109375c-8.058593 3.8125-16.613281 6.46875-25.414062 7.894531l-.742188.152344c-1.757812.332031-3.601562.667969-5.546875.980469l-.910156.148437c-3.976562.628907-8.339844 1.226563-13.152344 1.765625l-.484375.058594c-1.988281.222656-4.113281.417969-6.246093.613281l-3.738282.335938c-2.066406.167969-4.171875.332031-6.375.476562-1.707031.117188-3.464844.210938-5.222656.316407-3.269531.1875-6.683594.347656-10.238281.484374-2.460938.09375-4.917969.1875-7.519531.257813-2.175782.050781-4.464844.085937-6.742188.125-3.925781.0625-7.925781.128906-12.195312.128906h-204.796876c-4.269531 0-8.269531-.066406-12.253906-.128906-2.28125-.039063-4.566406-.074219-6.742187-.125-2.558594-.070313-5.0625-.164063-7.519531-.257813-3.554688-.136718-6.96875-.296874-10.238282-.484374-1.757812-.105469-3.542968-.199219-5.222656-.316407-2.203125-.144531-4.265625-.308593-6.375-.476562l-3.738281-.335938c-2.132813-.195312-4.265625-.390625-6.246094-.613281l-.484375-.058594c-4.8125-.539062-9.175781-1.136718-13.160156-1.765625l-.902344-.148437c-1.945312-.3125-3.789062-.648438-5.546875-.980469l-.742187-.152344c-8.800782-1.425781-17.355469-4.082031-25.414063-7.894531l-.214844-.109375c-.621093-.332031-1.191406-.648437-1.703125-.964844-1.675781-.921875-3.175781-2.132812-4.429687-3.574219.410156-29.929687 14.503906-55.144531 42.027343-75.0625zm0 0" fill="#1d7def" data-original="#000000" style="" class=""/></g></svg>
