<svg width="499" height="60" viewBox="0 0 499 60" fill="none" xmlns="http://www.w3.org/2000/svg">
<path fill-rule="evenodd" clip-rule="evenodd" d="M281.235 -0.0460815C273.59 7.728 264.875 13.5196 255.538 18.1974L288.764 45.4401L286.877 46.4648L273.123 35.9954C268.668 32.5873 257.541 34.9484 255.304 39.2698L280.866 59.7631C287.947 51.9668 296.603 45.7742 306.68 41.0964L273.104 14.2992L274.874 12.6954L285.748 21.6055C291.176 26.0606 295.495 27.2412 307.186 20.6477L281.235 -0.0460815ZM0.388275 15.1234H14.7059L18.9273 32.2531H19.0051L23.2264 15.1234H37.544V44.5936H28.3037V23.5435H28.2259L22.8179 44.5936H15.095L9.68695 23.5435H9.62859V44.5936H0.388275V15.1234ZM84.4654 22.5411H91.5269C93.2388 22.5411 94.5033 23.0757 94.5033 25.3032C94.5033 27.1743 93.6668 28.0876 91.6825 28.0876H84.4654V22.5411ZM107.751 44.5936L99.0942 35.3717C106.234 34.0797 105.319 26.0829 105.319 23.3207C105.319 20.1131 103.724 17.2618 101.818 16.1926C100.398 15.413 98.6468 15.1234 95.7094 15.1234H74.2913V44.5936H84.4654V35.5053H86.2356L94.7561 44.5936H107.751ZM172.316 15.1234H182.49V44.5936H172.316V15.1234ZM150.587 22.5411H141.172V15.1234H170.177V22.5411H160.761V44.5936H150.587V22.5411ZM108.315 15.1234H118.489V32.9659C118.489 36.7527 120.415 37.9556 123.722 37.9556C127.049 37.9556 128.955 36.7527 128.955 32.9659V15.1234H139.129V33.4114C139.129 42.7893 134.188 45.6406 123.722 45.6406C113.276 45.6406 108.315 42.7893 108.315 33.4114V15.1234ZM56.083 24.0335H56.0052L52.9705 34.0351H59.0983L56.083 24.0335ZM49.7996 15.1234H62.2886L73.2408 44.5936H62.4248L61.3354 41.2078H50.7334L49.6634 44.5936H38.828L49.7996 15.1234Z" fill="#1D7DEF"/>
<path fill-rule="evenodd" clip-rule="evenodd" d="M353.135 15.1249H363.309V32.9452C363.309 36.7543 365.216 37.9571 368.542 37.9571C371.849 37.9571 373.756 36.7543 373.756 32.9452V15.1249H383.93V33.413C383.93 42.7909 378.989 45.6421 368.542 45.6421C358.077 45.6421 353.135 42.7909 353.135 33.413V15.1249Z" fill="#00509E"/>
<path fill-rule="evenodd" clip-rule="evenodd" d="M386.673 38.3581L402.119 22.5426H387.723V15.1249H415.814V21.5625L400.738 37.1775H415.425V44.5952H386.673V38.3581Z" fill="#00509E"/>
<path fill-rule="evenodd" clip-rule="evenodd" d="M418.557 15.1249H428.731V32.9452C428.731 36.7543 430.637 37.9571 433.964 37.9571C437.271 37.9571 439.197 36.7543 439.197 32.9452V15.1249H449.371V33.413C449.371 42.7909 444.43 45.6421 433.964 45.6421C423.498 45.6421 418.557 42.7909 418.557 33.413V15.1249Z" fill="#00509E"/>
<path fill-rule="evenodd" clip-rule="evenodd" d="M489.289 15.1249H499.463V44.5952H489.289V15.1249Z" fill="#00509E"/>
<path fill-rule="evenodd" clip-rule="evenodd" d="M453.806 44.5952H463.688L463.494 34.0367L473.396 44.5952H486.41L472.267 29.5593L487.149 15.1249H474.796L463.688 25.327V15.1249H453.806V44.5952Z" fill="#00509E"/>
<path fill-rule="evenodd" clip-rule="evenodd" d="M219.939 44.8172V36.5085C219.939 30.0932 221.787 26.6851 224.043 24.1011L245.131 -0.0452957V9.91177C245.131 15.8147 243.283 18.6882 241.026 21.2722L233.109 30.3382C232.545 30.9842 232.078 31.8084 232.078 33.1895V34.8378L245.131 19.8911V29.8482C245.131 35.7734 243.283 38.6246 241.026 41.2086L237.447 45.3072C236.883 45.9532 236.435 46.7774 236.435 48.1362V49.8069L245.131 39.8275C245.131 39.8275 245.131 44.3048 245.131 49.8069C245.131 57.5364 241.221 59.7639 236.435 59.7639H219.939V44.8172Z" fill="#00509E"/>
<path fill-rule="evenodd" clip-rule="evenodd" d="M217.877 44.8172V36.5085C217.877 30.0932 216.029 26.6851 213.772 24.1011L205.738 14.9014L192.665 -0.0452957V9.91177C192.665 15.8147 194.513 18.6882 196.77 21.2722L202.82 28.1998L204.707 30.3382C205.271 30.9842 205.738 31.8084 205.738 33.1895V34.8378L192.665 19.8911V29.8482C192.665 35.7734 194.513 38.6246 196.77 41.2086L198.482 43.1465L200.349 45.3072C200.913 45.9532 201.38 46.7774 201.38 48.1362V49.8069L192.665 39.8275C192.665 39.8275 192.665 44.3048 192.665 49.8069C192.665 57.5364 196.595 59.7639 201.38 59.7639H217.877V44.8172Z" fill="#00509E"/>
<path fill-rule="evenodd" clip-rule="evenodd" d="M324.753 32.0987C319.773 31.23 317.711 27.911 317.711 23.79C317.711 16.1496 324.247 14.078 332.612 14.078C344.07 14.078 348.797 17.5084 349.167 23.7455H337.339C337.339 22.5426 336.717 21.8075 335.783 21.3843C334.888 20.9388 333.721 20.7829 332.612 20.7829C329.578 20.7829 328.527 21.6293 328.527 22.8768C328.527 23.7009 328.858 24.2355 329.869 24.4137L342.028 26.4631C347.144 27.3318 350.315 30.0717 350.315 35.0613C350.315 42.2563 345.198 45.6421 333.76 45.6421C325.94 45.6421 317.38 44.3947 317.361 35.7296H329.616C329.655 36.7097 329.986 37.378 330.706 37.8235C331.464 38.2467 332.573 38.4472 334.168 38.4472C337.339 38.4472 338.195 37.4671 338.195 36.0637C338.195 35.195 337.728 34.3263 336.367 34.0812L324.753 32.0987Z" fill="#00509E"/>
</svg>
