<svg id="Capa_1" enable-background="new 0 0 512 512" height="512" viewBox="0 0 512 512" width="512" xmlns="http://www.w3.org/2000/svg" xmlns:xlink="http://www.w3.org/1999/xlink"><linearGradient id="SVGID_1_" gradientUnits="userSpaceOnUse" x1="256" x2="256" y1="512" y2="0"><stop offset="0" stop-color="#ffe59a"/><stop offset="1" stop-color="#ffffd5"/></linearGradient><linearGradient id="SVGID_2_" gradientUnits="userSpaceOnUse" x1="255.998" x2="255.998" y1="122.763" y2="389.237"><stop offset="0" stop-color="#fd5900"/><stop offset="1" stop-color="#ffde00"/></linearGradient><g><g><circle cx="256" cy="256" fill="url(#SVGID_1_)" r="256"/></g><g><g><path d="m300.411 131.646c0-4.91-3.973-8.883-8.883-8.883h-71.06c-4.91 0-8.882 3.973-8.882 8.883v8.882h88.824v-8.882zm44.412 159.884c-4.901 0-8.882 3.981-8.882 8.882s3.981 8.883 8.882 8.883 8.882-3.981 8.882-8.883c0-4.901-3.981-8.882-8.882-8.882zm-177.649 0c-4.901 0-8.882 3.981-8.882 8.882s3.982 8.883 8.882 8.883c4.901 0 8.882-3.981 8.882-8.883 0-4.901-3.981-8.882-8.882-8.882zm213.179-44.412h-248.709c-14.694 0-26.647 11.953-26.647 26.647v53.295c0 14.694 11.953 26.647 26.647 26.647h248.709c14.694 0 26.647-11.953 26.647-26.647v-53.295c0-14.694-11.953-26.647-26.647-26.647zm-213.179 79.942c-14.694 0-26.647-11.953-26.647-26.647s11.953-26.647 26.647-26.647 26.647 11.953 26.647 26.647c0 14.693-11.953 26.647-26.647 26.647zm106.589 0h-35.53c-4.91 0-8.882-3.973-8.882-8.882s3.973-8.883 8.882-8.883h35.53c4.91 0 8.883 3.973 8.883 8.883s-3.973 8.882-8.883 8.882zm17.765-35.53h-71.06c-4.91 0-8.882-3.973-8.882-8.882 0-4.91 3.973-8.883 8.882-8.883h71.06c4.91 0 8.883 3.973 8.883 8.883 0 4.909-3.973 8.882-8.883 8.882zm53.295 35.53c-14.694 0-26.647-11.953-26.647-26.647s11.953-26.647 26.647-26.647 26.647 11.953 26.647 26.647c0 14.693-11.953 26.647-26.647 26.647zm-204.297 53.294c0 4.91 3.973 8.883 8.882 8.883h44.412c4.91 0 8.882-3.973 8.882-8.883v-8.882h-62.177v8.882zm168.767 0c0 4.91 3.973 8.883 8.883 8.883h44.412c4.91 0 8.882-3.973 8.882-8.883v-8.882h-62.177zm-177.649-168.766h15.274l-4.44 17.765h227.04l-4.44-17.765h15.274c4.91 0 8.882-3.973 8.882-8.882s-3.973-8.883-8.882-8.883h-19.713l-3.837-15.354c-2.967-11.875-13.601-20.176-25.849-20.176h-149.909c-12.248 0-22.883 8.301-25.849 20.185l-3.835 15.345h-19.716c-4.91 0-8.882 3.973-8.882 8.883s3.972 8.882 8.882 8.882z" fill="url(#SVGID_2_)"/></g></g></g></svg>