<svg width="318" height="166" viewBox="0 0 318 166" fill="none" xmlns="http://www.w3.org/2000/svg">
<g filter="url(#filter0_d)">
<path fill-rule="evenodd" clip-rule="evenodd" d="M126.265 110.482L127.639 112.813C127.639 112.813 68.8216 106.019 68.8216 83.7983C68.8216 63.7618 119.374 54.4586 147.107 54.4586C207.865 54.4586 223.046 69.6909 223.046 69.6909C223.046 69.6909 202.977 62.5609 165.66 62.5555C103.696 62.5466 85.062 80.9696 85.0373 87.1664C84.9678 104.849 126.265 110.482 126.265 110.482Z" fill="#1F93CE"/>
</g>
<g filter="url(#filter1_d)">
<path fill-rule="evenodd" clip-rule="evenodd" d="M100.895 32.5884L133.366 133.414L165.726 32.5884H155.543L133.824 101.741L111.419 32.5884H100.895Z" fill="#8BC743"/>
</g>
<path d="M167.175 106H163.9C163.55 106 163.342 105.825 163.275 105.475L159.4 90.5C159.283 90.1167 159.45 89.925 159.9 89.925H162.25C162.583 89.925 162.783 90.1 162.85 90.45L165.475 102.75H165.575L168.2 90.45C168.267 90.1 168.467 89.925 168.8 89.925H171.15C171.567 89.925 171.733 90.1167 171.65 90.5L167.775 105.475C167.692 105.825 167.492 106 167.175 106ZM176.962 90.45V105.475C176.962 105.825 176.787 106 176.437 106H174.312C173.962 106 173.787 105.825 173.787 105.475V90.45C173.787 90.1 173.962 89.925 174.312 89.925H176.437C176.787 89.925 176.962 90.1 176.962 90.45ZM179.927 101.9V101.4C179.927 101.05 180.102 100.875 180.452 100.875H182.577C182.927 100.875 183.102 101.05 183.102 101.4V101.6C183.102 102.233 183.227 102.667 183.477 102.9C183.727 103.133 184.185 103.25 184.852 103.25H186.027C186.677 103.25 187.127 103.125 187.377 102.875C187.644 102.625 187.777 102.158 187.777 101.475V101.175C187.777 100.692 187.577 100.325 187.177 100.075C186.794 99.8083 186.31 99.65 185.727 99.6C185.144 99.55 184.51 99.4583 183.827 99.325C183.16 99.175 182.535 98.9917 181.952 98.775C181.369 98.5417 180.877 98.1 180.477 97.45C180.094 96.7833 179.902 95.9333 179.902 94.9V94.025C179.902 92.725 180.269 91.7167 181.002 91C181.735 90.2833 182.752 89.925 184.052 89.925H186.552C187.869 89.925 188.894 90.2833 189.627 91C190.36 91.7167 190.727 92.725 190.727 94.025V94.5C190.727 94.85 190.552 95.025 190.202 95.025H188.077C187.727 95.025 187.552 94.85 187.552 94.5V94.35C187.552 93.7 187.427 93.2583 187.177 93.025C186.927 92.7917 186.469 92.675 185.802 92.675H184.827C184.144 92.675 183.677 92.8083 183.427 93.075C183.194 93.325 183.077 93.825 183.077 94.575V95.05C183.077 95.8333 183.76 96.2833 185.127 96.4C186.544 96.5167 187.802 96.8 188.902 97.25C189.485 97.5 189.969 97.95 190.352 98.6C190.752 99.2333 190.952 100.05 190.952 101.05V101.9C190.952 103.2 190.585 104.208 189.852 104.925C189.119 105.642 188.102 106 186.802 106H184.077C182.777 106 181.76 105.642 181.027 104.925C180.294 104.208 179.927 103.2 179.927 101.9ZM196.454 106H194.329C193.979 106 193.804 105.825 193.804 105.475V90.45C193.804 90.1 193.979 89.925 194.329 89.925H196.454C196.804 89.925 196.979 90.1 196.979 90.45V96.325C196.979 96.5083 197.079 96.6 197.279 96.6H201.504C201.687 96.6 201.779 96.5083 201.779 96.325V90.45C201.779 90.1 201.954 89.925 202.304 89.925H204.429C204.779 89.925 204.954 90.1 204.954 90.45V105.475C204.954 105.825 204.779 106 204.429 106H202.304C201.954 106 201.779 105.825 201.779 105.475V99.625C201.779 99.4417 201.687 99.35 201.504 99.35H197.279C197.079 99.35 196.979 99.4417 196.979 99.625V105.475C196.979 105.825 196.804 106 196.454 106ZM210.808 106H208.733C208.383 106 208.208 105.825 208.208 105.475V90.45C208.208 90.1 208.383 89.925 208.733 89.925H210.608C210.958 89.925 211.191 90.0417 211.308 90.275L216.358 99.75H216.458V90.45C216.458 90.1 216.633 89.925 216.983 89.925H219.058C219.408 89.925 219.583 90.1 219.583 90.45V105.475C219.583 105.825 219.408 106 219.058 106H217.233C216.866 106 216.6 105.833 216.433 105.5L211.433 96.2H211.333V105.475C211.333 105.825 211.158 106 210.808 106ZM231.057 89.925H233.157C233.524 89.925 233.707 90.0917 233.707 90.425V101.925C233.707 103.225 233.34 104.233 232.607 104.95C231.89 105.65 230.882 106 229.582 106H226.832C225.515 106 224.499 105.65 223.782 104.95C223.065 104.25 222.707 103.242 222.707 101.925V90.45C222.707 90.1 222.882 89.925 223.232 89.925H225.357C225.707 89.925 225.882 90.1 225.882 90.45V101.775C225.882 102.308 225.99 102.692 226.207 102.925C226.44 103.142 226.815 103.25 227.332 103.25H229.057C229.59 103.25 229.965 103.142 230.182 102.925C230.415 102.692 230.532 102.308 230.532 101.775V90.45C230.532 90.1 230.707 89.925 231.057 89.925ZM248.914 106H246.189C244.873 106 243.856 105.65 243.139 104.95C242.423 104.25 242.064 103.242 242.064 101.925V94C242.064 92.6833 242.423 91.675 243.139 90.975C243.856 90.275 244.873 89.925 246.189 89.925H248.914C250.214 89.925 251.223 90.2833 251.939 91C252.673 91.7 253.039 92.7 253.039 94V95.175C253.039 95.5417 252.856 95.725 252.489 95.725H250.389C250.039 95.725 249.864 95.5417 249.864 95.175V94.15C249.864 93.6167 249.748 93.2417 249.514 93.025C249.298 92.7917 248.923 92.675 248.389 92.675H246.689C246.173 92.675 245.798 92.7917 245.564 93.025C245.348 93.2417 245.239 93.6167 245.239 94.15V101.775C245.239 102.308 245.348 102.692 245.564 102.925C245.798 103.142 246.173 103.25 246.689 103.25H248.389C248.923 103.25 249.298 103.142 249.514 102.925C249.748 102.692 249.864 102.308 249.864 101.775V100.75C249.864 100.383 250.039 100.2 250.389 100.2H252.489C252.856 100.2 253.039 100.383 253.039 100.75V101.925C253.039 103.225 252.673 104.233 251.939 104.95C251.223 105.65 250.214 106 248.914 106ZM257.442 106H255.042C254.742 106 254.642 105.825 254.742 105.475L258.692 90.45C258.808 90.1 259.058 89.925 259.442 89.925H262.767C263.183 89.925 263.433 90.1 263.517 90.45L267.467 105.475C267.567 105.825 267.467 106 267.167 106H264.767C264.583 106 264.458 105.967 264.392 105.9C264.325 105.817 264.275 105.675 264.242 105.475L263.542 102.725H258.667L257.967 105.475C257.933 105.675 257.875 105.817 257.792 105.9C257.725 105.967 257.608 106 257.442 106ZM261.067 92.95L259.267 100.175H262.967L261.167 92.95H261.067ZM272.333 106H270.208C269.858 106 269.683 105.825 269.683 105.475V90.45C269.683 90.1 269.858 89.925 270.208 89.925H276.158C277.458 89.925 278.474 90.2833 279.208 91C279.941 91.7167 280.308 92.725 280.308 94.025V95.975C280.308 97.8583 279.566 99.1083 278.083 99.725V99.825L280.758 105.4C280.908 105.8 280.766 106 280.333 106H278.308C278.008 106 277.791 105.967 277.658 105.9C277.524 105.833 277.416 105.692 277.333 105.475L274.833 100.075H273.158C272.958 100.075 272.858 100.167 272.858 100.35V105.475C272.858 105.825 272.683 106 272.333 106ZM273.133 97.525H275.583C276.116 97.525 276.508 97.4167 276.758 97.2C277.008 96.9667 277.133 96.6 277.133 96.1V94.15C277.133 93.6333 277.008 93.2583 276.758 93.025C276.508 92.7917 276.116 92.675 275.583 92.675H273.133C272.949 92.675 272.858 92.7667 272.858 92.95V97.25C272.858 97.4333 272.949 97.525 273.133 97.525ZM282.954 101.9V101.4C282.954 101.05 283.129 100.875 283.479 100.875H285.604C285.954 100.875 286.129 101.05 286.129 101.4V101.6C286.129 102.233 286.254 102.667 286.504 102.9C286.754 103.133 287.213 103.25 287.879 103.25H289.054C289.704 103.25 290.154 103.125 290.404 102.875C290.671 102.625 290.804 102.158 290.804 101.475V101.175C290.804 100.692 290.604 100.325 290.204 100.075C289.821 99.8083 289.338 99.65 288.754 99.6C288.171 99.55 287.538 99.4583 286.854 99.325C286.188 99.175 285.563 98.9917 284.979 98.775C284.396 98.5417 283.904 98.1 283.504 97.45C283.121 96.7833 282.929 95.9333 282.929 94.9V94.025C282.929 92.725 283.296 91.7167 284.029 91C284.763 90.2833 285.779 89.925 287.079 89.925H289.579C290.896 89.925 291.921 90.2833 292.654 91C293.388 91.7167 293.754 92.725 293.754 94.025V94.5C293.754 94.85 293.579 95.025 293.229 95.025H291.104C290.754 95.025 290.579 94.85 290.579 94.5V94.35C290.579 93.7 290.454 93.2583 290.204 93.025C289.954 92.7917 289.496 92.675 288.829 92.675H287.854C287.171 92.675 286.704 92.8083 286.454 93.075C286.221 93.325 286.104 93.825 286.104 94.575V95.05C286.104 95.8333 286.788 96.2833 288.154 96.4C289.571 96.5167 290.829 96.8 291.929 97.25C292.513 97.5 292.996 97.95 293.379 98.6C293.779 99.2333 293.979 100.05 293.979 101.05V101.9C293.979 103.2 293.613 104.208 292.879 104.925C292.146 105.642 291.129 106 289.829 106H287.104C285.804 106 284.788 105.642 284.054 104.925C283.321 104.208 282.954 103.2 282.954 101.9Z" fill="black"/>
<defs>
<filter id="filter0_d" x="64.8216" y="54.4586" width="162.225" height="66.3546" filterUnits="userSpaceOnUse" color-interpolation-filters="sRGB">
<feFlood flood-opacity="0" result="BackgroundImageFix"/>
<feColorMatrix in="SourceAlpha" type="matrix" values="0 0 0 0 0 0 0 0 0 0 0 0 0 0 0 0 0 0 127 0"/>
<feOffset dy="4"/>
<feGaussianBlur stdDeviation="2"/>
<feColorMatrix type="matrix" values="0 0 0 0 0 0 0 0 0 0 0 0 0 0 0 0 0 0 0.25 0"/>
<feBlend mode="normal" in2="BackgroundImageFix" result="effect1_dropShadow"/>
<feBlend mode="normal" in="SourceGraphic" in2="effect1_dropShadow" result="shape"/>
</filter>
<filter id="filter1_d" x="96.8948" y="32.5884" width="72.8312" height="108.826" filterUnits="userSpaceOnUse" color-interpolation-filters="sRGB">
<feFlood flood-opacity="0" result="BackgroundImageFix"/>
<feColorMatrix in="SourceAlpha" type="matrix" values="0 0 0 0 0 0 0 0 0 0 0 0 0 0 0 0 0 0 127 0"/>
<feOffset dy="4"/>
<feGaussianBlur stdDeviation="2"/>
<feColorMatrix type="matrix" values="0 0 0 0 0 0 0 0 0 0 0 0 0 0 0 0 0 0 0.25 0"/>
<feBlend mode="normal" in2="BackgroundImageFix" result="effect1_dropShadow"/>
<feBlend mode="normal" in="SourceGraphic" in2="effect1_dropShadow" result="shape"/>
</filter>
</defs>
</svg>
